<svg 
 xmlns="http://www.w3.org/2000/svg"
 xmlns:xlink="http://www.w3.org/1999/xlink"
 width="307px" height="284px">
<defs>

</defs>
<g>
<path fill-rule="evenodd"  fill="rgb(0, 156, 222)"
 d="M252.303,153.327 L247.667,153.327 L247.667,196.364 C247.667,198.142 246.566,199.739 244.893,200.380 C244.386,200.573 243.858,200.668 243.333,200.668 C242.137,200.668 240.963,200.173 240.127,199.261 L217.333,174.359 L217.333,174.846 C217.333,188.914 205.807,200.363 191.637,200.363 L119.591,200.655 L77.540,246.598 C76.704,247.510 75.529,248.004 74.333,248.004 C73.809,248.004 73.280,247.910 72.773,247.717 C71.101,247.075 70.000,245.478 70.000,243.701 L70.000,200.664 L43.697,200.664 C29.527,200.664 18.000,189.220 18.000,175.147 L18.000,84.162 C18.000,70.089 29.527,58.641 43.697,58.641 L78.667,58.568 L78.667,36.515 C78.667,22.442 90.193,10.994 104.363,10.994 L252.312,11.295 C266.478,11.299 278.000,22.748 278.000,36.816 L278.000,127.810 C278.000,141.879 266.473,153.327 252.303,153.327 ZM83.009,67.162 C83.004,67.162 83.004,67.162 83.000,67.162 L43.705,67.244 C34.306,67.244 26.667,74.831 26.667,84.158 L26.667,175.143 C26.667,184.464 34.306,192.052 43.697,192.052 L74.333,192.052 C76.730,192.052 78.667,193.980 78.667,196.356 L78.667,232.567 L114.460,193.459 C115.275,192.568 116.436,192.056 117.649,192.052 L191.619,191.751 C201.027,191.751 208.667,184.168 208.667,174.841 L208.667,163.217 L208.667,83.852 C208.667,74.526 201.027,66.938 191.637,66.938 L83.009,67.162 ZM269.338,36.812 C269.338,27.486 261.698,19.898 252.308,19.898 C252.303,19.898 252.303,19.898 252.299,19.898 L104.355,19.597 C94.973,19.597 87.333,27.185 87.333,36.511 L87.333,58.546 L191.628,58.335 C205.807,58.335 217.333,69.783 217.333,83.856 L217.333,161.556 L239.000,185.226 L239.000,149.015 C239.000,146.639 240.937,144.711 243.333,144.711 L252.303,144.711 C261.694,144.711 269.333,137.128 269.333,127.802 L269.338,127.802 L269.338,36.812 ZM174.000,161.624 L61.333,161.624 C58.937,161.624 57.000,159.697 57.000,157.321 C57.000,154.945 58.937,153.017 61.333,153.017 L174.000,153.017 C176.396,153.017 178.333,154.945 178.333,157.321 C178.333,159.697 176.396,161.624 174.000,161.624 ZM174.000,135.803 L61.333,135.803 C58.937,135.803 57.000,133.874 57.000,131.499 C57.000,129.123 58.937,127.195 61.333,127.195 L174.000,127.195 C176.396,127.195 178.333,129.123 178.333,131.499 C178.333,133.874 176.396,135.803 174.000,135.803 ZM117.667,109.980 L61.333,109.980 C58.937,109.980 57.000,108.052 57.000,105.676 C57.000,103.301 58.937,101.372 61.333,101.372 L117.667,101.372 C120.063,101.372 122.000,103.301 122.000,105.676 C122.000,108.052 120.063,109.980 117.667,109.980 Z"/>
</g>
</svg>