<svg xmlns="http://www.w3.org/2000/svg" viewBox="0 0 50 39.5"><defs><style>.cls-1{fill:#fff;}</style></defs><title>Ресурс 1</title><g id="Слой_2" data-name="Слой 2"><g id="Слой_1-2" data-name="Слой 1"><path class="cls-1" d="M44.22,39.5H5.78A5.78,5.78,0,0,1,0,33.73V10.29A5.78,5.78,0,0,1,5.78,4.51h7.84l.69-2.32A2.85,2.85,0,0,1,17.11,0H32.89A2.91,2.91,0,0,1,35.7,2.21l0,.08.63,2.23h7.88A5.78,5.78,0,0,1,50,10.29V33.73a5.79,5.79,0,0,1-5.78,5.78ZM5.78,6.44a3.86,3.86,0,0,0-3.85,3.85V33.73a3.86,3.86,0,0,0,3.85,3.85H44.22a3.86,3.86,0,0,0,3.85-3.85V10.29a3.86,3.86,0,0,0-3.85-3.85H34.88L33.83,2.68a1,1,0,0,0-.94-.75H17.11a1,1,0,0,0-.94.76L15.06,6.44ZM25,33.68A12.22,12.22,0,1,1,37.22,21.46,12.24,12.24,0,0,1,25,33.68Zm0-22.52A10.3,10.3,0,1,0,35.3,21.46,10.31,10.31,0,0,0,25,11.16ZM43,10a1.78,1.78,0,1,0,1.78,1.78A1.78,1.78,0,0,0,43,10Zm0,0"/></g></g></svg>