<svg 
 xmlns="http://www.w3.org/2000/svg"
 xmlns:xlink="http://www.w3.org/1999/xlink"
 width="18px" height="18px">
<path fill-rule="evenodd"  fill="rgb(255, 255, 255)"
 d="M17.719,16.393 L13.283,11.938 C14.423,10.629 15.048,8.981 15.048,7.266 C15.048,3.259 11.672,-0.001 7.523,-0.001 C3.374,-0.001 -0.002,3.259 -0.002,7.266 C-0.002,11.273 3.374,14.534 7.523,14.534 C9.081,14.534 10.565,14.080 11.834,13.218 L16.304,17.708 C16.491,17.895 16.742,17.998 17.011,17.998 C17.266,17.998 17.508,17.905 17.692,17.734 C18.082,17.371 18.094,16.771 17.719,16.393 ZM7.523,1.895 C10.590,1.895 13.085,4.304 13.085,7.266 C13.085,10.229 10.590,12.637 7.523,12.637 C4.456,12.637 1.961,10.229 1.961,7.266 C1.961,4.304 4.456,1.895 7.523,1.895 Z"/>
</svg>