<svg xmlns="http://www.w3.org/2000/svg" viewBox="0 0 18 18"><defs><style>.cls-1{fill:#fff;fill-rule:evenodd;}</style></defs><title>Ресурс 1</title><g id="Слой_2" data-name="Слой 2"><g id="Иконки"><path class="cls-1" d="M12.62,1.7A5,5,0,0,1,14.29,2a2.77,2.77,0,0,1,1,.67,2.78,2.78,0,0,1,.67,1,5,5,0,0,1,.31,1.67c.11,2.4.11,4.85,0,7.25A5,5,0,0,1,16,14.29a3,3,0,0,1-1.7,1.7,5,5,0,0,1-1.67.31c-2.4.11-4.85.11-7.25,0A5,5,0,0,1,3.71,16a2.78,2.78,0,0,1-1-.67,2.79,2.79,0,0,1-.67-1,5,5,0,0,1-.31-1.67c-.11-2.4-.11-4.85,0-7.25A5,5,0,0,1,2,3.71a2.79,2.79,0,0,1,.67-1,2.77,2.77,0,0,1,1-.67A5,5,0,0,1,5.37,1.7c2.4-.11,4.85-.11,7.25,0ZM5.3.09A6.58,6.58,0,0,0,3.12.5a4.4,4.4,0,0,0-1.59,1,4.39,4.39,0,0,0-1,1.59A6.59,6.59,0,0,0,.08,5.3C0,7.76,0,10.25.08,12.7A6.59,6.59,0,0,0,.5,14.88a4.4,4.4,0,0,0,1,1.59,4.41,4.41,0,0,0,1.59,1,6.6,6.6,0,0,0,2.18.42c2.45.11,4.94.11,7.4,0a6.59,6.59,0,0,0,2.18-.42,4.59,4.59,0,0,0,2.62-2.62,6.58,6.58,0,0,0,.42-2.18c.11-2.45.11-4.94,0-7.4a6.57,6.57,0,0,0-.42-2.18,4.38,4.38,0,0,0-1-1.59,4.4,4.4,0,0,0-1.59-1A6.58,6.58,0,0,0,12.7.09C10.25,0,7.75,0,5.3.09ZM9,4.4A4.61,4.61,0,1,0,13.61,9,4.61,4.61,0,0,0,9,4.4ZM9,12a3,3,0,1,1,3-3,3,3,0,0,1-3,3Zm5.86-7.78a1.08,1.08,0,1,1-1.08-1.08,1.08,1.08,0,0,1,1.08,1.08Z"/></g></g></svg>