<svg xmlns="http://www.w3.org/2000/svg" viewBox="0 0 17.25 17.45"><defs></defs><g id="Слой_2" data-name="Слой 2"><g id="Слой_1-2" data-name="Слой 1"><path d="M8.62,9.75A4.81,4.81,0,1,0,3.81,4.93,4.82,4.82,0,0,0,8.62,9.75Zm0-8.36A3.55,3.55,0,1,1,5.08,4.93,3.56,3.56,0,0,1,8.62,1.38Zm0,0"/><path class="cls-1" d="M.76,17.33H16.49a.63.63,0,0,0,.64-.64,6.05,6.05,0,0,0-6-6H6.17a6.05,6.05,0,0,0-6,6,.63.63,0,0,0,.64.64Zm5.41-5.41h4.91a4.77,4.77,0,0,1,4.73,4.14H1.44a4.78,4.78,0,0,1,4.73-4.14Zm0,0"/></g></g></svg>