<svg 
 xmlns="http://www.w3.org/2000/svg"
 xmlns:xlink="http://www.w3.org/1999/xlink"
 width="79px" height="87px">
<path fill-rule="evenodd"  stroke-width="2px" stroke="#98694c" fill-opacity="0" fill="rgb(255, 255, 255)"
 d="M67.330,20.052 C70.234,22.228 73.001,27.207 73.409,30.959 C73.426,31.131 73.459,31.482 73.501,31.981 C73.571,32.817 73.641,33.763 73.706,34.800 C73.893,37.763 74.005,40.861 74.005,43.936 C74.005,47.012 73.893,50.110 73.706,53.074 C73.641,54.111 73.571,55.057 73.501,55.893 C73.459,56.392 73.426,56.742 73.408,56.924 C73.001,60.667 70.234,65.646 67.330,67.822 C67.186,67.930 66.907,68.136 66.507,68.425 C65.839,68.909 65.079,69.449 64.240,70.031 C61.844,71.693 59.306,73.355 56.739,74.905 L56.814,74.863 C54.175,76.453 51.528,77.902 48.948,79.210 C48.045,79.669 47.216,80.076 46.479,80.428 C46.039,80.638 45.728,80.782 45.567,80.855 C42.243,82.367 36.717,82.367 33.450,80.858 C33.290,80.784 32.979,80.637 32.537,80.423 C31.799,80.065 30.969,79.652 30.065,79.191 C27.483,77.871 24.832,76.426 22.265,74.901 L22.316,74.933 C19.679,73.354 17.137,71.693 14.751,70.032 C13.916,69.451 13.161,68.911 12.499,68.427 C12.103,68.139 11.827,67.933 11.685,67.825 C8.777,65.646 6.010,60.667 5.601,56.915 C5.584,56.742 5.552,56.392 5.510,55.893 C5.440,55.057 5.370,54.111 5.304,53.074 C5.117,50.110 5.005,47.012 5.005,43.936 C5.005,40.861 5.117,37.763 5.304,34.800 C5.370,33.763 5.440,32.817 5.510,31.981 C5.552,31.482 5.584,31.131 5.602,30.950 C6.005,27.248 8.800,22.248 11.688,20.046 C11.820,19.947 12.090,19.748 12.477,19.468 C13.125,18.999 13.864,18.476 14.678,17.913 C17.007,16.303 19.482,14.694 21.991,13.193 C22.128,13.111 22.128,13.111 22.265,13.029 C24.835,11.477 27.483,10.029 30.063,8.720 C30.965,8.262 31.794,7.854 32.531,7.503 C32.972,7.292 33.282,7.148 33.444,7.075 C36.768,5.563 42.293,5.563 45.560,7.072 C45.728,7.148 46.039,7.292 46.479,7.503 C47.216,7.854 48.045,8.262 48.948,8.720 C51.528,10.029 54.175,11.477 56.739,13.025 C56.887,13.114 56.887,13.114 57.025,13.195 C59.555,14.695 62.032,16.303 64.350,17.912 C65.162,18.475 65.895,18.997 66.537,19.466 C66.921,19.745 67.188,19.944 67.325,20.048 L67.330,20.052 Z"/>
</svg>