<svg class="lds-spinner" width="200px"  height="200px"  xmlns="http://www.w3.org/2000/svg" xmlns:xlink="http://www.w3.org/1999/xlink" viewBox="0 0 100 100" preserveAspectRatio="xMidYMid" style="background: none;"><g transform="rotate(0 50 50)">
  <rect x="48" y="23" rx="4.8" ry="2.3000000000000003" width="4" height="14" fill="#98694c">
    <animate attributeName="opacity" values="1;0" times="0;1" dur="2s" begin="-1.8571428571428572s" repeatCount="indefinite"></animate>
  </rect>
</g><g transform="rotate(25.714285714285715 50 50)">
  <rect x="48" y="23" rx="4.8" ry="2.3000000000000003" width="4" height="14" fill="#98694c">
    <animate attributeName="opacity" values="1;0" times="0;1" dur="2s" begin="-1.7142857142857142s" repeatCount="indefinite"></animate>
  </rect>
</g><g transform="rotate(51.42857142857143 50 50)">
  <rect x="48" y="23" rx="4.8" ry="2.3000000000000003" width="4" height="14" fill="#98694c">
    <animate attributeName="opacity" values="1;0" times="0;1" dur="2s" begin="-1.5714285714285714s" repeatCount="indefinite"></animate>
  </rect>
</g><g transform="rotate(77.14285714285714 50 50)">
  <rect x="48" y="23" rx="4.8" ry="2.3000000000000003" width="4" height="14" fill="#98694c">
    <animate attributeName="opacity" values="1;0" times="0;1" dur="2s" begin="-1.4285714285714286s" repeatCount="indefinite"></animate>
  </rect>
</g><g transform="rotate(102.85714285714286 50 50)">
  <rect x="48" y="23" rx="4.8" ry="2.3000000000000003" width="4" height="14" fill="#98694c">
    <animate attributeName="opacity" values="1;0" times="0;1" dur="2s" begin="-1.2857142857142858s" repeatCount="indefinite"></animate>
  </rect>
</g><g transform="rotate(128.57142857142858 50 50)">
  <rect x="48" y="23" rx="4.8" ry="2.3000000000000003" width="4" height="14" fill="#98694c">
    <animate attributeName="opacity" values="1;0" times="0;1" dur="2s" begin="-1.1428571428571428s" repeatCount="indefinite"></animate>
  </rect>
</g><g transform="rotate(154.28571428571428 50 50)">
  <rect x="48" y="23" rx="4.8" ry="2.3000000000000003" width="4" height="14" fill="#98694c">
    <animate attributeName="opacity" values="1;0" times="0;1" dur="2s" begin="-1s" repeatCount="indefinite"></animate>
  </rect>
</g><g transform="rotate(180 50 50)">
  <rect x="48" y="23" rx="4.8" ry="2.3000000000000003" width="4" height="14" fill="#98694c">
    <animate attributeName="opacity" values="1;0" times="0;1" dur="2s" begin="-0.8571428571428571s" repeatCount="indefinite"></animate>
  </rect>
</g><g transform="rotate(205.71428571428572 50 50)">
  <rect x="48" y="23" rx="4.8" ry="2.3000000000000003" width="4" height="14" fill="#98694c">
    <animate attributeName="opacity" values="1;0" times="0;1" dur="2s" begin="-0.7142857142857143s" repeatCount="indefinite"></animate>
  </rect>
</g><g transform="rotate(231.42857142857142 50 50)">
  <rect x="48" y="23" rx="4.8" ry="2.3000000000000003" width="4" height="14" fill="#98694c">
    <animate attributeName="opacity" values="1;0" times="0;1" dur="2s" begin="-0.5714285714285714s" repeatCount="indefinite"></animate>
  </rect>
</g><g transform="rotate(257.14285714285717 50 50)">
  <rect x="48" y="23" rx="4.8" ry="2.3000000000000003" width="4" height="14" fill="#98694c">
    <animate attributeName="opacity" values="1;0" times="0;1" dur="2s" begin="-0.42857142857142855s" repeatCount="indefinite"></animate>
  </rect>
</g><g transform="rotate(282.85714285714283 50 50)">
  <rect x="48" y="23" rx="4.8" ry="2.3000000000000003" width="4" height="14" fill="#98694c">
    <animate attributeName="opacity" values="1;0" times="0;1" dur="2s" begin="-0.2857142857142857s" repeatCount="indefinite"></animate>
  </rect>
</g><g transform="rotate(308.57142857142856 50 50)">
  <rect x="48" y="23" rx="4.8" ry="2.3000000000000003" width="4" height="14" fill="#98694c">
    <animate attributeName="opacity" values="1;0" times="0;1" dur="2s" begin="-0.14285714285714285s" repeatCount="indefinite"></animate>
  </rect>
</g><g transform="rotate(334.2857142857143 50 50)">
  <rect x="48" y="23" rx="4.8" ry="2.3000000000000003" width="4" height="14" fill="#98694c">
    <animate attributeName="opacity" values="1;0" times="0;1" dur="2s" begin="0s" repeatCount="indefinite"></animate>
  </rect>
</g></svg>