<svg xmlns="http://www.w3.org/2000/svg" viewBox="0 0 394.87 420.3"><defs><style>.cls-1,.cls-2{fill:#D8B08C;stroke:#B98F6D;stroke-width:0.25px;}.cls-1{stroke-linecap:round;stroke-linejoin:round;}</style></defs><g id="Слой_2" data-name="Слой 2"><g id="Слой_1-2" data-name="Слой 1"><g id="Слой_1-3" data-name="Слой_1"><path class="cls-1" d="M45.42,379.39l-.4.87-1.1,2.34.22.71,1.37-.54.13-1.19,1.68-1.47,1.28-1.52,1.28,2,.35,1.9,1.5.27,2.91,1.74,1.06-.54.79.76,1.1.11,2.47-2.44L63.81,381l.31,2.5,2.6-.11,1.81,1.3.22.81-1,1.63.79.6,1.15-1,2.91-.49.18.65,1.32-.11.88.65,2.43-2.23L79.07,383l.57-.43,1.68,1.09,0,1.25.88.43.49-2.72.79-.16.35.92-.44,1.74,2.12.16.31-.38,1.5.38.26-.43.88-1.47.93-1.3V381l1.06-2.12.09-2.39,1-2,.13-1.41.57-.65.13-1.19,2.34.11,1.15-.6.53-.71,7.32-.16,1.81,1.09.13-4.73,1.41-.71,0,0,.36.8.84.54,1.23-.71,2.87.6.18,1.79,2.2.6,5.16.22,2.29,2.28.44,2.77,2.12,1.9,1.32.33,1,.92,3.92,1.19,4.06.76,2.87,1.36,6.92-.49-2.12,4.18-1.23,4,1.81.49h1.46l1.5.65,1.72-1.52,5.42.27.62.49.26.71-.22.87-1.15,2.72.09,1.52L152,397l.18,1.52,1.1.54,2.2,1.52h3l1.76,2.12-.09,1.3,1.54,1.19,1.37-.71,2.2.16.66-.54,2.78,1.63,2.43.22,2.12,1.09,0,2.93,1.72,1.41-.57,1.25.75.38,2.25.16,1.5.54,3.13-.6.62.65,2.16-1.3,1.76-4.62.53-.27,2.38,2.82.4,2.44.84,2.55-2.43,1.9.13-2.12-.93.16-.26,2.34-1.5.38-.4.54.79,1.52,3.62-2,2.73-.43.93-1,3.44-1.09,1.15-1.36,2,.43v.92l.71.76,2.91,1.63.88-1.41L209,419.8l2.87-2.39,2.34,1,1.1-1.09.66.27.4.87,3.17,1.14,2.34-1.25-.13-5.32-.49-.27-.88.76-1.54-.38.53-1.3-1.1-.71v-.87l-1.81-.76-2.12,1.9-.31-3.86,1.9.11.31-3.42-.71-.71,0-.65.53-.27.53-1.25-1.19-.65,2.6-1.79.49-1.25-.88-1.85-.13-1-1.1-.81-1.37-2,.84-3.86,2.47-2,.13-1.41,2.65-3.2,1.54,1.74.93-.54.88.76-.66.92,1.28,1.3,0,1,1.28.76,2.12-3.53-1.06-2.39,1.41-.87-.18-8.69,1-.43,1,.27,1.28.71,6.26-.38.71.65,1.15-.16,1.59-1-.18-2.17,1.23-1.47-1.19-1.09-.09-2.28,1.72-2,.18-2-2.29-2,.35-.43,1,.6.49-.54-.57-1-.31-.81.09-2.88,2.29-3.8,0-1.14,1.63-.38L245.7,346l1.76-.33,1,1.19,2.87.27.31-.54L249.19,342l3.31,1.14-.79-1.85.88-2.17,1.54-.92.49-.43v-.87l1.59.11,1.5-.22.62.49,1.15-.65,2.2.49,1,.76-.31,3.53,2.16-1,1.06,2.55-.35,1.74-1.41-.05-.18,2-.88,1.36-.79-.65-.93.92,2.43,2.06-4,5.87-.13,1.3,1.81,1.52,1.37.49,1.63-.43,2.47-1.41,2.16.11,4.72.76.93-.43-.18,1,4.19-.6.79-2.55,2-.22.57.6,2.6-3.42-2-.38.09-.6,2.16-2.39,0-.6-2.34-1,.26-2.44-.53-3.75-1.59-.43.09-2,2.29.16,1.32-3.48h.4l.53-2.72,1.68-.87,1.81,1.14,3.17-2.44-.88-1.14,1-1.09h2.12l-.53-.87.26-.71,1.1.11.09-2.39-.48-2.5-1.23-1.74.35-1.68,1.28-.27.13-.6-.93-1.36.22-1.14,1.41-1.09.44-1.52,4.67-2.06,3.13.16,1.41-.65.09-2.82.57-1.25-2.34-3.2-1.85.16-.66-1.52,1.81-1.09-.4-.81-1.9.71-.88-.76-1.46,1-1.5-.6-.26-1.19-1.37-.43-.44-.54.4-1-.57-.43-.79-.33-.79-.11-.53.49.62,1.09-.31.6-3-1.25-.18,1.63-.88-.16-1.1-1-.13-1.36-1.54-.33.18-.6,1.46-.76,0-1.14,1.1-.92-.62-.76-1.85,1.19-.18-.38.22-1.41-.57-.65-1.41-1.25-.62-2.12-1.76-1.52-1.68-.05-1.68.76-.66-.16-.57-.81-.44-1.25-2.43-4,.09-2.66,2-1.47v-.65l-.57-1v-3l1.19-.76,2,.65,1.32-1.25.49-1.9,1.63-.43,1.37-.27,1.85-.05,1-2.12.53-3.42-1.81-2.23-.53-1.74.57-.65,1.9.11,1.41-1.52,2.29-.16-.53-1-1.19-.43-.18,1.09-1-.27-.09-1.09,1.63-.81-.84-1.47-2.25-.11-1-2-1.06-.43.53-.92,2.38-2.39,2-1.68.75-1.19v-1.63l.49-.49.79.27.18-2.39h-2.07l-.66.65-.49-.76.71-1.63-1.23.16-1.32,1-1.15-.11-.35-.33,1.19-2.28-.84-.38-2.12.11-.18-4.24-.88-.49,0-2.5,4.19-1.52.18-1-1.23-1.74-.13-1-.18-.54-.93-.05-2.34,1.9-.84.05-1.59-2.12-3.26,1.14-1.9-5.7-2.07-1.63.35-1.41-1.41-.33-.66-2,3.79.22-.49-.27.13-4.51,3-.38-.31-4.24-1.85-2.72.93-3.31,1.85-1.47-.62-1.63-3.62.11-1.15-1.09L265.19,194l-1.81,1.63-.88-.16,1.15-2.82-.62-2.39-2.91-.27-1.81.49-2.07-1.36-.44-3.69-1.63-1.47.4-1.09h1.28l.13-1.41-1.06-.6-.66-1.68.18-2.23,2.07-5.05,2.51-.16,2.78,1,.31-1.85.75-.27,8.38-.16-.09-2.66L274,168l.35-1.9-.84-1.58h-1l-2.25-2.34-1.1.33.09-1.19,1.28-1.3-1.32-2.88.71-.33,1.32,2.28,1.94-.54.75-14.56,1.9.05.44-2.06,7.85,1.09,2.82-2L291,141l1.1-.65,2.12-2.23,1.68.05,1.76,1.52.22-6.46,8,.54,1.41,1.09.79.11.93-.54,1.59.38.09,2.44,2.29.22.71-2,1,.6,2.69.11.88-2.28,2.12-.71.57.76.4-.33-.22-3.31,2.34-.16,1.32.38.09,1,2.43-.11,0-1.3,1.19-.87,0-1-2.43-.11.4-4.83,1.59.16,2.25-4.18-.35-1.9-.44-.76H329l-.71.92-1.1-.6-.18-3.2,2-1.19-1-1.09-.88.43-.93-2.72-.13-1,1.37-.87.84-1.19,3.4.16.53-5h-1.94l-1.54-2.61,1-2.39L329,94.58l-.88-2.06-2.16.54-.18,1.09-1.76.65-.93-4.34-.71-2.28L321,86.65l1.54-.87,3.09-.54,1.19-1.36-.26-1.47.88-.49-.71-1.74-2.12-.65-1.15.49.18,2.55-2.38-2.12,2-2.39,1.19.54.31-.33-.49-1.19.84-.71,1.5,2,.75-.38-.31-1.14,4.23-2.55-1.72-2.12-2.34-.49.53-1.9L325,67.37l.35-.76,1.76.38,1.94-.76,1.15.43,1.72,1.63,2.38-.27,1.9-1,2.69,2.55,2.43-.11L344.17,71l4-2.34,3-.38L352.72,66l3.31-.76,1.72-1.52,1.85-.05.13-.92,2,.27,1.37,1.3,3-2.12.66,2.55L366.75,67l7.19.54.18-4.78L375.34,60l1.9.22.88-.27-.18-2.77-1.19-2.34.18-1.2,2.65-2.12-1.63-3.26,0-1.63,4.85-5.38-1.32-2.12,1.37-3-1.9-.6,1.46-2.34.84-1,.57-1.47,1.68-1.63-.93-1.52,2-1,.49,1.3,1.19-.49-.44-1.19,3.4-.71,1.32.76,1.06-.87,1.06.11.18-1.79-1.41-2.06.09-2-1.37-.22-1.81-1.63h-.84l-1.72-1.25h-1.15l-1.28.33-2.43-1.25-2.91-.05L376,14.19l-4.76-.33-.71-4.18-53.4-1.41L316,7l-1.59-.05-1.85-1.63-1.23.38-1.19,2.06,0,.92-1.54,1.14-2.82.16-1.41-2-1.9-3-1.37-.71V3.28l-28.53.22-.66,2.23h-.4l-4-1.36-1.81.43-1.19,2.82L261,7.4l-.49,4-2.07-.43,1.46,1.85-.35,2.5-1.1,1.58L255.62,19l-2.6.11-2.65-1.47-.22-1.3L248.35,16l-1.32.87-.18-.22,0-1.63-.75-.05-.44-2.17-.66.05v-6H230.67l0-2.72L226,3.87l0-3.75L211.66.34l-.09,2.12-2.78-.05-1.19-.92-1.72.22-.22-.49-3,.43-1.76,1.68.53,2.82-.75,1.36L198.48,10l-.09,2,1.19,1.9-.09.87-1.94,1v1.14L199,19.46l1,2.5,2.69,1.41-.31,2.44-.4.87-.35,2.88-.4.76-1.63,1.52.13,2.23-4,4.94,0,4.29-1.72,3.1-1.28.05L189.48,46l-1.37.65-2.6-.92-1.63.49-3.4,3.53-3.4.43v1l-.09.43,1.76.38-.26.38L177,53.57l.57,2.55-.71,2.5-1.5.81v1.09l-2.69,1.36-1.06.71-.88,1.74-2.87,1.09-1.63,1.74-5-.43-1.76,4.78-1.37-.22-1.59,1.41L155.09,74l-2,.49-3.79.71-1.68,1.9-2.78-.71-4.1,1.68L138.64,78l-.71-.6-1.28,1.36-7.5-5-2.56-3-2.07-1.09-.88-.76-1.19-3.86-1.1-1.14-3.92-.54-1.1-.65L116,62l-.09-.6-.53-.16-.93.87-1.54-2.55.88-.27.66-.49-.62-.65-1.54-.22-1.23,1.41-.35,1-.75,2-1.63,2.06-2.6,1.52-1,1-.13.71-.48,2.06L102.83,71l-1.19,1.3-.44,1,0,4.07,1.19-.05-.09,1.85L98.82,85l-1.68,1.41L96.09,87.9,95.51,89l-.44.87-.49,2.66L94.19,96l-3,4.4-2.6,4.73-.66,3,.22,6.41.57,4.4,1.06,3.75,1.94,3.37,3.44,3.42,3.35,7.88,1.19,6.08.62,2.23.88,1.19,1.19.33-1.9,2.23-1.41.87-1-.71-.84-2.88L96.79,145l-1.23-.76-1.68.43-.84.11-.62-.71.18-1.25-1.15-.65-1.06.49.79,1.41,0,1.09-2.78,3.1-1.19.05-2-.43-1.63.87-2.07-.71-1.9.43-3.44,2.72-.88-.16-.93-.71-.88.22-3.31,8.53,0,.49.88.33v.49l-.62.33-2.16,3.64.22.11.84.6.79,3.8.44.22,1,1,2.16.92,1.5-1.3h.88l.44.38,0,.87-1.23,1.68.57,1.14-.13,4.4L71.57,180l.26,1.19-2.29,3.15.79.54,1.94.38h1.94l-.35,2.06.13,2.77-16.49.54-.26.43.75,1h1.68l0,.65-.26.81-2,1-1.94.65v2.12l-.09.54,2.43-.11,1,1.19L61,200.49,62.53,202l.35,1.52,1.68,1.25,1.1,1.3.84,1.79.26,3.15-.93.81-2.29,1.52,0,1.47,1.68-.16,0,.6-.49,1.25.57.33.88,1.3-.18.65-1.32.76v.76l.53.27,1-.81,2.65-.27.53.33-.13.43-1.1.65.26.76.53.54.75-.49.84-.27.84.33.44-.05.44-.38,1,.54.31-.11.4-2.23.31-.43.57.33.48.87-.66.92,0,.54.4.22.88-.6.53.05.18.71.22.92,1.23.6.22.49-.44.92.18,1.19.75.92-.66.49-.71-.05-.62-1.41-1.32,1.19-2.91.22-1.9-1.09L69,229.87,65,229.71,62.57,233l-3.13-.49-.84.22-.66.81,0,.54.79.6.13,3.31L61,237.8,60.9,243l.84-.11.4.43L62,246.49l-.35.81-.71-.49-.53-1.09-.93.49.13,1.85-2.87,2.77-2,1.14-1.1-.43-1.46,1-.13-.27.48-1.25-.48-1.14-.79-.33-1.19.11-.53.6,0,.81-.18,1-1,1L48.11,256v1.58l-.09,1-1.19,1.57-1,.49,0,.65-.93.81-.75.11,0,.65-.4.71-2.12,1.19-.84,2.06-.44,1.79v.71l-2.69.27,0,1-2.34.22-1.63.54-1.9,1.25-.62,1.79,0,1.25-.49.6-1.72.6-.88.65-.31,1-.13,1.63-.18,1.19-.44.6-1.06.43-1.41-.11-1-.22-.53.11-.4.54.62,2.55.71,1.3,0,1.14-.18,1-.4.76-.93.11-.79-.6-1.32-.33-1.59.27-.31.87.26,2.55L21,296.67v1.14l.57,1.19v1l-.62,1.74-.31,1.52.31,1.41.84.65,3.4,1.19.49,1.19-.31,1.3-1.06,1.52-1.19.6-.71,1.3L21,313.89H20l-.22-1.14-.71-.43-.79.38-.93,2.5-1.72,2V322l-1.9-.76-1.5-1.85-.79-.38-1.28.43-.53,1,.22,2,1.54,1.25,0,1.14-.13,1.68.44,1.09.18,1.36-3.13,1.85-2.38.27-1.54.71-1.41,1.47L4,334.42,6,336.49l1.81.49-1.5,1.85.4.6.26.71-.22,1.47-.44.81L3,342.13.31,345.61l.31,2.93-.49.38.13.81,1.23,1,.26,2L3,352.18l1,.11.71.65L5,354.14l.66.22,2.2-1.19,1.9-2,2.43-1.74,2.43-.16,1.06.54.09,1.63-1.94,1-.75,1,.22,1,2.43,1.79.09.71-.4.49-1.46-.22-.18.92.26,1.68,1.37,1.52,3.48,1.47,4.19-.16,7.23,2.5.79-.11.31-1,.62-1.47,2.34-1.19,1.76-.16,2.43-1.79,3.62-.27,1.76-2.77L46,357.72l1.5.92-.35,3-2.2,1.74,2.69,5.7.18,1.41L46,372.39l-.48,1.68-1.63.22V375l1.19.71v1.85l.35,1.85ZM289,296.95l-.84-1-.35-.71,1.28-1.14,1.5.71L289,296.95Z"/><polygon id="_235733064" data-name=" 235733064" class="cls-2" points="247.07 240.62 248.48 240.84 249.89 239.81 251.26 239.86 252.1 240.3 254.21 243.83 255.89 243.61 256.55 244.86 257.92 244.81 258.58 245.84 259.37 246.11 259.86 245.68 260.96 246.44 260.83 247.09 261.84 246.82 263.52 247.52 263.47 248.28 264.18 248.39 264.8 247.52 266.87 247.68 267.8 248.94 269.12 249.1 270.75 251.22 271.9 251.87 273.13 252.95 272.2 254.58 269.51 257.46 269.43 258.44 268.99 259.2 267.75 259.31 266.47 260.45 265.99 262.95 264.8 263.98 264.67 265.17 266.03 267.02 265.77 268.49 262.06 270.88 260.48 273.21 259.15 273.92 257.87 275.44 256.6 275.65 255.76 276.58 254.52 276.85 253.68 275.98 253.38 274.73 255.18 272.4 255.36 270.55 258.31 266.37 258.89 265.34 255.4 267.07 255.05 268.6 251.39 270.77 248.84 272.72 247.34 272.67 242.88 274.25 241.6 272.51 241.96 270.44 242.09 269.19 241.16 269.08 240.59 270.6 238.03 270.66 237.59 272.34 236.88 272.4 236.22 270.88 237.72 267.45 237.46 265.88 236.09 264.79 237.99 264.52 241.03 261.97 240.46 259.2 240.98 258.65 242.97 255.45 243.06 254.75 242.13 253.71 241.2 254.15 240.76 253.01 236.93 248.55 237.59 245.51 240.19 243.67 240.9 242.53 241.38 241.55 241.29 240.03 243.01 239.81 244.95 240.73 247.07 240.62"/><polygon id="_236013824" data-name=" 236013824" class="cls-2" points="230.36 284.35 231.55 283.86 232.74 281.63 234.06 279.57 237.54 279.4 240.81 279.95 242.31 279.57 242.66 278.32 242.4 276.36 241.82 276.04 241.25 275.38 241.56 274.79 242.88 274.25 247.34 272.67 248.84 272.72 251.39 270.77 255.05 268.6 255.4 267.07 258.89 265.34 258.31 266.37 255.36 270.55 255.18 272.4 253.38 274.73 253.68 275.98 254.52 276.85 255.76 276.58 256.6 275.65 257.87 275.44 259.15 273.92 260.48 273.16 262.46 275.17 265.68 276.47 266.82 276.25 268.45 276.25 268.15 277.34 267.57 277.72 267.71 281.85 266.08 282.72 263.08 282.88 262.59 283.31 262.42 285.92 262.72 287.23 262.46 287.88 260.87 288.2 259.81 287.12 257.65 284.51 256.15 284.18 254.88 285.11 254.88 286.74 256.9 290.1 254.79 294.18 255.85 295.26 259.42 295.75 261 299.01 262.81 298.68 263.61 300.15 265.41 300.04 265.59 301.35 264.8 304.22 264.58 304.55 263.61 307.75 262.99 307.59 260.21 305.58 258.89 305.42 256.77 307.54 257.35 308.13 257.3 310.14 255.98 307.97 255.8 306.45 252.76 304.12 251.52 303.08 250.6 303.3 247.38 306.13 246.41 306.5 246.1 308.51 245.31 309.11 244.16 309.22 243.06 307.16 240.5 309.93 238.47 309.55 238.12 311.5 239.79 312.15 239.97 314 238.74 315.36 237.59 315.36 235.65 317.8 235.47 319.54 233.8 320.46 231.59 321.71 229.03 321.33 226.43 321.17 224.58 320.19 225.68 319.21 225.33 318.29 223.96 318.18 222.95 315.9 222.82 313.78 224.89 310.63 226.65 307.59 225.99 306.29 224.41 304.88 224.41 302.59 226.13 300.8 225.29 300.2 224.49 300.96 223.7 299.61 221.54 297.33 219.82 297.49 218.85 296.89 222.24 293.42 222.33 290.81 225.55 288.75 227.27 288.26 228.46 285.87 230.36 284.35"/><polygon id="_236206976" data-name=" 236206976" class="cls-2" points="231.5 338.5 228.99 337.79 228.86 335.51 232.12 331.54 232.08 328.12 233.05 327.36 236.13 327.14 237.19 326.33 237.02 323.89 236.27 322.42 233.8 320.46 231.59 321.71 229.03 321.33 226.43 321.17 224.58 320.19 225.68 319.21 225.33 318.29 223.96 318.18 222.95 315.9 222.82 313.78 224.93 310.58 223.96 310.47 223.61 310.8 219.91 310.14 218.01 310.74 216.29 314.76 214.31 313.84 212.32 314.92 211.49 315.3 207.78 315.14 206.02 314 205.75 312.48 204.91 311.88 203.9 312.92 203.24 312.48 199.58 317.21 201.69 320.36 201.61 321.33 202.93 323.83 201.25 324.48 200.15 325.35 199.84 326.76 197.24 329.43 197.29 330.3 198.65 331.71 197.86 332.36 196.63 331.44 195.79 330.3 192.7 329.97 190.85 331.44 190.94 334.37 189.7 335.35 189.92 338.12 191.07 338.06 191.99 340.29 190.63 341.1 191.38 342.13 193.36 341.32 193.85 341.81 194.29 344.36 195.61 345.34 197.99 345.83 199.8 345.18 201.21 345.39 202.67 346.32 204.61 345.72 206.24 347.51 205.8 350.33 207.52 352.29 212.94 352.4 214.66 352.07 216.47 350.71 220.74 349.63 221.89 348.11 221.05 345.01 221.28 343.98 224.05 343.22 225.33 343.33 231.5 338.5"/><polygon id="_235908976" data-name=" 235908976" class="cls-2" points="233.8 320.46 236.27 322.42 237.02 323.89 237.19 326.33 236.13 327.14 233.05 327.36 232.08 328.12 232.12 331.54 228.86 335.51 228.99 337.79 231.5 338.5 233.22 337.46 235.52 338.39 236.93 335.35 238.25 335.89 239.09 337.52 238.12 340.12 239.04 341.59 241.07 340.83 241.78 342.84 243.1 343.65 244.25 342.89 245.22 343.55 243.72 344.31 244.25 348.71 245.88 348.33 245.7 346.04 247.47 345.72 248.48 346.91 251.35 347.18 251.66 346.64 249.19 341.97 252.49 343.11 251.7 341.26 252.54 339.15 251.7 337.41 253.73 333.93 255.23 329.86 256.51 329.7 258.36 331.44 258.84 330.19 258.23 328.07 258.62 327.52 257.7 326.27 260.74 324.21 262.72 325.03 264.22 324.54 266.12 322.15 265.59 319.38 265.72 318.07 268.19 316.77 268.37 314.65 269.21 314.49 269.21 313.08 268.63 312.26 270.31 309.76 268.54 307.16 268.5 306.45 266.56 305.31 265.02 303.84 264.58 304.55 263.61 307.75 262.99 307.59 260.21 305.58 258.89 305.42 256.77 307.54 257.35 308.13 257.3 310.14 255.98 307.97 255.8 306.45 252.76 304.12 251.52 303.08 250.6 303.3 247.38 306.13 246.41 306.5 246.1 308.51 245.31 309.11 244.16 309.22 243.06 307.16 240.5 309.93 238.47 309.55 238.12 311.5 239.79 312.15 239.97 314 238.74 315.36 237.59 315.36 235.65 317.8 235.47 319.54 233.8 320.46"/><polygon id="_213176360" data-name=" 213176360" class="cls-2" points="204.61 367.82 202.27 370.59 201.39 370.97 201.12 369.83 200.06 369.24 198.74 367.66 197.82 368.26 196.27 367.93 195.96 370.16 193.76 370.05 191.86 372.6 191.91 374.29 191.69 376.62 190.58 377.06 187.14 375.86 185.6 374.45 184.76 375.54 184.06 375.54 182.82 374.61 180.71 375.92 181.94 378.14 181.24 379.07 179.12 379.01 178.02 379.67 176.74 379.67 173.3 382.49 173.52 383.36 174.44 382.7 174.75 383.68 171.75 385.48 171.8 387.81 175.37 386.78 176.6 387.7 176.87 388.63 176.3 389.44 174.71 389.01 174.44 390.85 171.84 393.24 170.92 393.03 168.23 394.93 162.32 394.49 161.35 400.57 159.72 401.99 158.57 400.57 155.53 400.57 153.32 399.05 152.22 398.51 152.04 396.99 153.01 394.65 152.93 393.13 154.07 390.42 154.29 389.55 154.03 388.84 153.41 388.36 149.88 388.19 152.31 385.15 152.49 382.76 151.87 381.4 153.76 379.07 155.84 379.88 156.45 379.28 156.76 372.77 156.15 371.19 156.85 364.94 158.26 363.05 159.85 361.8 158.66 359.24 159.63 358.32 159.06 356.09 158.39 355.17 161.66 352.67 164.96 351.69 166.64 348.76 167.3 345.18 172.9 350.66 175.11 349.47 176.08 349.47 176.65 348.27 174.31 347.08 172.46 343.98 172.46 342.24 173.47 342.03 171.97 340.18 175.77 339.36 179.21 337.84 179.56 336.54 179.96 336.65 180.53 339.91 181.9 340.01 181.85 336.49 184.72 336.54 189.66 335.35 189.92 338.12 191.07 338.06 191.99 340.29 190.63 341.1 191.38 342.13 193.36 341.32 193.85 341.81 194.29 344.36 195.61 345.34 197.99 345.83 199.8 345.18 201.21 345.39 202.67 346.32 204.61 345.72 206.24 347.51 205.8 350.33 207.52 352.29 212.94 352.4 212.63 354.63 214 356.04 215.76 355.82 218.05 357.88 219.11 359.3 218.76 361.42 217.97 362.67 215.41 364.73 214.31 365.16 211.62 365.05 210.6 363.21 209.68 363.1 208.71 363.86 205.4 365.33 204.61 367.82"/><polygon id="_236406080" data-name=" 236406080" class="cls-2" points="190.67 278.59 191.91 279.68 192.92 281.52 193.27 287.88 194.68 287.77 196.09 287.19 195.74 292.38 194.6 292.28 193.41 292.93 192.35 298.68 191.95 298.79 191.82 300.2 192.83 301.67 190.54 305.85 189.13 307.7 185.34 309.22 185.73 310.63 184.76 311.34 183.97 310.8 183.18 310.2 180.88 313.4 180.97 314.54 178.19 313.84 177.27 312.05 176.16 311.61 174.89 311.29 175.02 310.52 174.05 310.04 173.12 310.63 172.42 309.93 173.52 309.11 173.74 304.88 174.44 298.85 173.87 298.2 171 297.38 170.56 296.46 171.14 293.2 168.31 285.21 170.12 284.02 170.34 282.66 171.23 282.99 169.68 278.7 166.38 273.86 167.43 272.34 169.06 272.99 169.81 272.02 171.8 272.94 172.72 271.36 175.37 270.98 177.97 269.25 178.28 267.78 178.24 266.37 176.91 265.23 177.71 262.13 179.34 262.51 179.52 263.71 180.84 264.3 179.96 267.29 181.01 268.54 183.57 267.45 183.71 268.32 181.41 271.47 182.96 274.03 184.72 275.65 185.6 275.11 187.5 277.12 190.67 278.59"/><polygon id="_235856576" data-name=" 235856576" class="cls-2" points="163.99 320.3 165.1 320.36 166.24 318.94 169.06 319.54 172.9 318.51 174.53 318.78 176.43 320.79 178.06 321.06 178.19 313.84 180.97 314.54 183.44 317.15 192.44 318.35 193.49 319.49 193.32 320.63 193.98 321.28 195.39 321.77 195.96 321.66 196.76 320.84 198.65 320.03 199.58 317.21 201.69 320.36 201.61 321.33 202.93 323.83 201.25 324.48 200.15 325.35 199.84 326.76 197.24 329.43 197.29 330.3 198.65 331.71 197.86 332.36 196.63 331.44 195.79 330.3 192.7 329.97 190.85 331.44 190.94 334.37 189.66 335.35 184.72 336.54 181.85 336.49 181.9 340.01 180.53 339.91 179.96 336.65 179.56 336.54 179.21 337.84 175.77 339.36 171.97 340.18 173.47 342.03 172.46 342.24 172.46 343.98 174.31 347.08 176.65 348.27 176.08 349.47 175.11 349.47 172.9 350.66 167.3 345.18 166.64 348.76 164.96 351.69 161.66 352.67 158.39 355.12 154.69 354.36 150.76 353.87 149.13 352.94 138.81 352.45 137.58 350.28 133.22 346.7 133.39 343.87 135.02 342.3 134.98 340.94 132.86 338.5 134.14 335.35 134.94 334.91 136.57 335.4 136.96 334.1 137.36 331.87 139.61 331.38 140.18 330.19 142.12 328.61 143.14 328.66 143.62 327.9 143.22 325.24 149.22 322.04 150.59 320.46 152.97 319.27 153.54 318.67 155.97 319 156.54 320.52 161.48 321.82 163.99 320.3"/><polygon id="_235887880" data-name=" 235887880" class="cls-2" points="177.8 260.56 178.46 261.26 179.38 261.43 179.29 262.51 177.71 262.13 176.91 265.23 178.24 266.37 178.28 267.78 177.97 269.25 175.37 270.98 172.72 271.36 171.8 272.94 169.81 272.02 169.06 272.99 167.43 272.34 166.38 273.86 169.68 278.7 167.87 279.95 165.14 280.65 163.95 281.63 163.07 281.69 159.76 283.86 158.88 284.07 158.04 284.73 152.35 287.01 150.54 287.01 149.27 287.55 148.25 287.28 148.56 286.3 148.47 284.29 148.74 282.93 149.84 282.23 148.96 281.41 147.02 282.72 145.65 282.01 145.56 277.39 142.65 278.26 134.45 276.96 131.36 275.98 128.01 273.7 123.78 273.27 121.62 272.29 121.66 270.39 123.73 270.06 124.75 265.17 124.84 263.6 126.25 263.44 127.53 263.76 128.94 263 129.03 259.85 131.8 260.12 134.32 259.96 135.95 258.6 136.7 257.35 134.94 256.32 138.02 252.95 139.65 254.64 141.42 254.04 142.92 254.75 144.24 253.17 143.27 251.49 140.84 251.27 142.25 248.45 139.43 245.51 139.48 243.99 142.3 241.11 143 239.16 141.24 236.39 142.12 233.73 141.55 231.28 142.87 231.55 144.28 230.74 144.68 231.61 146.18 231.61 146.18 235.19 145.16 235.79 144.99 236.99 146.22 238.83 147.41 239.16 148.25 238.18 149.18 240.35 150.02 239.54 152.22 240.84 153.15 239.81 153.68 239.86 153.32 241.33 154.47 243.99 156.19 245.51 158.22 244.32 159.72 244.21 161.44 247.25 161.79 245.68 163.11 245.73 167.04 249.31 167.43 250.67 168.71 252.79 171.14 253.44 171.31 256.92 173.12 256.65 174.4 259.69 175.37 260.01 177.49 259.14 177.8 260.56"/><path id="_235834080" data-name=" 235834080" class="cls-2" d="M148.25,287.28l.31-1-.09-2,.26-1.36,1.1-.71-.88-.81-1.94,1.3-1.37-.71-.09-4.62-2.91.87-8.2-1.3-3.09-1L128,273.7l-4.23-.43-2.2-1-3.62.27-1.37,1.52-.4,3.37-1.37,3.69-1.23.11-1.15-.71-1.46.65-1.5.22-3.09,4.51-.18,5.49.84.6.13,2.83.75.54,2-1.09,1.41.05-.88,3.48-2.12,2.61-2-.05-3,1.19-1.85-.27-1.19,1.58v.92l2.29.49.93,1.41,2.56-.27,1.59.81.09,1.3-1.41.49-.31,6.52,4,2.66.79,1.9v1.68l1.59,3,2.07,1.79,3.75-1.85,1.06,1-.57,1-2,1.9,4.23,3.47,2.56-2.5-.31-2.61.84-.22,1,.22,0,2.39-.66,1-.13,2.07,2.34,1.68,1.59-.82,1.37.49.49,2.34v1.63l.53,1.52,2.25.05,1.28-3.15.79-.43,1.63.49.4-1.3.4-2.23,2.25-.49.57-1.19,1.94-1.57,1,.05.49-.76-.4-2.66,6-3.21,1.37-1.57,2.38-1.19.57-.6L156,319l.57,1.52,4.94,1.3L164,320.3l-.49-3.91-1.85-.33-1.59-2.12h-1L156.89,315l-1.15-.22-2.51-3.2-.09-2.17-7-5.43.31-2.28,1.72-2.06.18-1.9,0-4.67-.66-2.34.62-3.47Zm-8.6,29.33.75-1.3-.93-1.14.09-1.09,3.75-2.82-1-1.09L141.11,308l-4.41.27-1.76.81.26.81-2,1-.44-1h-.93v1.3l1.19.16,3.26,5.7.62-1.85,2.78,1.36Z"/><polygon id="_235847072" data-name=" 235847072" class="cls-2" points="80.24 352.03 80.48 350.93 81.09 350.99 82.42 348.87 83.96 349.19 85.77 350.88 87.27 350.93 89.74 348.49 90.22 347.73 89.43 346.53 90.62 345.18 94.02 343.93 97.23 342.95 99.13 343.44 99.66 342.95 100.72 343.11 101.86 342.3 103.45 337.79 108.7 330.89 113.24 331.92 115.36 331.06 114.96 328.83 116.77 327.74 118.75 325.84 119.33 324.81 118.27 323.78 114.52 325.62 112.45 323.83 110.86 320.79 110.86 319.11 110.06 317.21 106.05 314.54 106.36 308.02 107.77 307.54 107.68 306.23 106.1 305.42 103.54 305.69 102.61 304.28 100.32 303.79 100.32 302.87 101.51 301.29 103.36 301.56 106.36 300.37 108.35 300.42 110.46 297.82 111.34 294.34 109.93 294.29 107.95 295.37 107.2 294.83 107.07 292 106.23 291.41 106.41 285.92 103.98 286.25 99.66 288.04 97.54 287.93 95.69 289.94 92.12 286.95 90.58 288.64 92.74 291.84 91.02 292.66 90.53 291.41 89.21 290.32 87.44 291.13 83.03 291.03 80.74 294.29 77.66 295.1 76.42 293.69 72.85 296.29 73.69 298.9 73.55 307.86 74.52 307.97 77.57 309.33 78.05 311.67 79.2 312.37 81.45 312.64 82.99 313.56 83.65 313.56 84.89 313.24 86.08 313.46 85.94 313.89 84.75 315.36 84.62 316.83 83.7 317.21 82.33 316.72 81.89 315.58 78.8 314.87 78.05 316.5 76.29 316.66 75.54 316.99 74.57 319.43 73.55 319.38 72.98 318.18 71.7 318.13 71.39 319 72.23 320.41 71.13 322.31 70.56 322.31 70.03 325.46 66.19 325.41 65.26 326.98 63.5 326.71 62.93 327.36 64.21 328.45 63.28 337.25 64.69 336.76 65.84 336.05 66.85 336.43 67.12 337.19 67.07 338.88 65.44 340.07 65.31 341.59 63.9 342.51 63.32 343.49 64.69 346.91 65.93 346.75 66.06 347.73 65.66 350.5 70.91 350.5 72.72 351.53 79.5 351.97 80.24 352.03"/><polygon id="_215372960" data-name=" 215372960" class="cls-2" points="27.96 305.09 27.43 304.55 24.61 306.34 21.79 305.37 20.95 304.71 20.64 303.3 20.95 301.78 21.57 300.04 21.57 299.01 20.99 297.81 20.99 296.67 18.88 292.22 18.61 289.67 18.92 288.8 20.51 288.53 21.83 288.85 22.62 289.45 23.55 289.34 23.95 288.58 24.12 287.61 24.08 286.46 23.37 285.16 22.76 282.61 23.15 282.06 23.68 281.96 24.65 282.17 26.06 282.28 27.12 281.85 27.56 281.25 27.74 280.05 27.87 278.43 28.18 277.45 29.06 276.8 30.78 276.2 31.27 275.6 31.31 274.35 31.93 272.56 33.82 271.31 35.46 270.77 37.79 270.55 37.75 269.57 39.51 272.07 41.85 272.56 43.04 275.38 41.28 278.32 41.63 279.68 43.35 279.95 44.72 279.35 48.55 282.93 50.67 281.96 53.4 285.54 61.12 282.44 62.93 285.7 64.78 284.94 65.13 285.87 64.07 286.74 64.56 288.15 67.29 286.95 67.6 286.95 69.94 284.78 71.44 282.82 73.11 283.04 74.22 283.37 75.32 282.06 79.86 282.34 81.27 286.52 78.58 287.71 78.89 289.88 77.13 290.86 77.48 292.17 76.55 292.6 76.38 293.69 72.85 296.29 73.69 298.9 73.6 307.86 72.23 307.97 69.1 307.59 65.75 310.09 62.27 310.25 60.99 310.09 59 310.36 56.93 308.57 55.65 307.75 54.95 307.81 53.67 305.53 52.17 305.69 51.59 304.82 50.45 304.82 49.48 303.52 48.07 303.63 48.16 302.21 46.61 302.16 46.79 300.91 36.73 300.48 36.25 301.13 34.49 301.62 34.35 302.49 27.96 305.09"/><polygon id="_236253248" data-name=" 236253248" class="cls-2" points="121.66 270.39 121.57 272.29 117.96 272.56 116.59 274.08 116.19 277.45 114.83 281.14 113.59 281.25 112.45 280.55 110.99 281.2 109.49 281.41 106.45 285.92 103.98 286.25 99.66 288.04 97.54 287.93 95.69 289.94 92.12 286.95 90.58 288.64 92.74 291.84 91.02 292.66 90.53 291.41 89.21 290.32 87.44 291.13 83.03 291.03 80.74 294.29 77.66 295.1 76.42 293.69 76.55 292.6 77.48 292.17 77.13 290.86 78.89 289.88 78.58 287.71 81.27 286.52 79.86 282.34 75.32 282.06 74.22 283.37 73.11 283.04 73.11 281.69 74.39 279.78 72.85 276.9 73.86 274.95 73.6 271.74 74.13 270.66 74.57 268.65 72.94 266.37 74.44 264.25 75.49 264.63 75.41 267.24 77.26 268.49 78.01 267.83 77.3 266.37 77.52 263.11 79.46 260.34 80.92 261.15 81.09 262.24 81.89 262.73 83.03 262.3 81.76 259.85 84 260.56 87.18 260.56 87.71 259.96 91.19 259.85 92.43 259.25 93.31 257.84 94.98 257.35 94.85 256.27 94.54 254.58 95.16 253.55 96.44 253.39 97.32 251.92 97.85 251.32 98.73 251.27 99.44 253.44 100.23 253.22 102.3 254.85 104.91 252.08 107.16 251.59 109.18 249.86 111.74 251.27 111.08 254.91 112 260.29 110.9 264.3 111.83 264.57 112.84 263.6 115.71 263.6 115.89 264.74 117.25 266.21 117.39 268.7 118.05 269.68 121.66 270.39"/><polygon id="_236236752" data-name=" 236236752" class="cls-2" points="78.23 224.17 79.77 223.46 82.15 223.57 83.78 224.6 84.97 223.24 86.65 223.3 89.03 220.15 91.68 220.47 94.63 223.35 93.27 224 93.62 225.25 95.03 226.83 98.78 225.04 99.17 227.15 97.89 228.68 95.29 229.22 93.62 231.82 93.79 232.69 95.34 234.54 96.97 234.6 99.39 233.18 99.79 236.06 101.69 238.34 102.97 238.5 104.55 240.3 107.07 239.37 108.88 239.97 109.09 241.38 107.29 244.64 109.09 246.92 109.18 249.86 107.16 251.59 104.91 252.08 102.3 254.85 100.23 253.22 99.44 253.44 98.73 251.27 97.85 251.32 97.32 251.92 96.44 253.39 95.16 253.55 94.54 254.58 94.85 256.27 94.98 257.35 93.31 257.84 92.43 259.25 91.19 259.85 87.71 259.96 87.18 260.56 84 260.56 81.76 259.85 83.03 262.3 81.89 262.73 81.09 262.24 80.92 261.15 79.46 260.34 79.24 259.47 80.04 258 81.49 257.84 80.65 254.96 75.41 255.24 73.51 257.62 71.53 256.16 70.29 256.97 69.23 256.38 69.23 255.45 69.94 254.04 70.07 252.74 68.79 252.63 68.48 251.54 69.36 249.04 70.64 248.88 70.56 246.82 64.38 246.82 62.08 245.34 62.13 243.34 61.74 242.91 60.9 243.01 60.99 237.8 58.83 237.96 58.69 234.65 57.9 234.05 57.94 233.51 58.61 232.69 59.44 232.48 62.58 232.97 64.96 229.71 69.01 229.87 70.6 226.56 72.5 227.64 75.41 227.43 76.73 226.23 77.35 227.64 78.05 227.7 78.71 227.21 77.96 226.28 77.79 225.09 78.23 224.17"/><polygon id="_215224144" data-name=" 215224144" class="cls-2" points="128.19 220.26 126.42 219.33 124.31 218.36 120.87 218.63 119.11 219.71 116.24 220.2 115.62 219.5 115.14 217.49 114.34 216.4 113.33 215.91 112.49 216.35 111.74 217.49 110.59 219.17 109.18 219.93 107.46 220.64 105.74 220.64 104.16 220.2 102.7 220.69 101.86 221.45 100.45 222.97 99.61 222.81 97.28 222.92 96.13 223.79 95.38 223.84 94.63 223.35 93.27 224 93.62 225.25 95.03 226.83 98.78 225.04 99.17 227.15 97.89 228.68 95.29 229.22 93.62 231.82 93.79 232.69 95.34 234.54 96.97 234.6 99.39 233.18 99.79 236.06 101.69 238.34 102.97 238.5 104.55 240.3 107.07 239.37 108.88 239.97 109.09 241.38 107.29 244.64 109.09 246.92 109.18 249.86 111.74 251.27 111.08 254.91 112 260.29 110.9 264.3 111.83 264.57 112.84 263.6 115.71 263.6 115.89 264.74 117.25 266.21 117.39 268.7 118.05 269.68 121.66 270.39 123.73 270.06 124.75 265.17 124.84 263.6 126.25 263.44 127.53 263.76 128.94 263 129.03 259.85 131.8 260.12 134.32 259.96 135.95 258.6 136.7 257.35 134.94 256.32 138.02 252.95 139.65 254.64 141.42 254.04 142.92 254.75 144.24 253.17 143.27 251.49 140.84 251.27 142.25 248.45 139.43 245.51 139.48 243.99 142.3 241.11 143 239.16 141.24 236.39 142.12 233.73 141.55 231.28 138.81 227.97 138.86 223.46 141.2 222.54 141.86 218.57 140.84 217.76 139.52 216.51 139.08 216.89 137.1 218.41 134.23 220.15 131.98 220.69 129.86 220.75 128.19 220.26"/><polygon id="_215369128" data-name=" 215369128" class="cls-2" points="177.8 260.56 181.1 257.19 184.06 258.44 185.38 257.62 184.32 255.29 183.88 252.84 184.37 251.92 185.47 251.54 187.54 249.75 188.56 249.86 191.03 249.75 191.91 249.86 193.27 251.76 197.29 250.62 195.17 247.3 196.32 246.06 196.58 244.75 196.14 244.1 193.49 243.5 193.54 242.74 196.58 242.58 195.7 240.35 196.93 239.81 197.33 239.1 195.22 235.68 193.54 235.74 191.47 234.6 188.78 234.38 185.6 233.94 182.47 233.4 178.9 232.15 176.43 231.55 175.11 230.2 173.08 227.53 172.64 225.74 171.27 224.55 167.74 220.91 165.54 220.64 162.8 219.82 161.75 219.28 160.69 217.22 160.42 213.9 159.94 212.11 157.12 209.77 154.91 208.42 154.43 209.39 151.69 212.71 151.29 213.25 149.57 213.36 149.35 215.04 148.52 215.15 146.31 215.91 143.8 218.41 142.17 217.49 140.84 217.76 141.86 218.57 141.2 222.54 138.86 223.46 138.81 227.97 141.5 231.28 142.87 231.55 144.28 230.74 144.68 231.61 146.18 231.61 146.18 235.19 145.16 235.79 144.99 236.99 146.22 238.83 147.41 239.16 148.25 238.18 149.18 240.35 150.02 239.54 152.22 240.84 153.15 239.81 153.68 239.86 153.32 241.33 154.47 243.99 156.19 245.51 158.22 244.32 159.72 244.21 161.44 247.25 161.79 245.68 163.11 245.73 167.04 249.31 167.43 250.67 168.71 252.79 171.14 253.44 171.31 256.92 173.12 256.65 174.4 259.69 175.37 260.01 177.49 259.14 177.8 260.56"/><polygon id="_236332040" data-name=" 236332040" class="cls-2" points="225.15 182.24 229.3 183.27 230.4 184.95 230.8 188.7 231.5 189.95 227.76 191.69 227.4 191.36 221.63 193.43 218.54 193.81 214.7 195.6 210.91 195.98 207.82 197.17 206.72 197.06 205 197.93 204.21 199.4 204.12 200.54 205 200.65 205.36 201.74 206.68 201.95 206.81 203.2 206.46 204.13 204.34 205.38 203.68 206.46 201.91 206.84 201.56 207.44 203.02 209.72 203.9 209.83 203.77 213.63 203.86 214.61 204.87 215.04 206.85 215.04 206.9 216.02 208 216.67 206.85 217.71 207.56 218.57 207.65 219.66 208.49 220.26 208.62 222.43 209.01 223.68 208.49 224.11 208.22 224.76 209.28 225.91 209.5 227.64 208.62 228.29 209.28 229.11 209.19 230.47 206.72 232.26 200.15 232.59 198.21 233.94 195.22 235.68 193.54 235.74 191.47 234.6 188.78 234.38 185.6 233.94 182.47 233.4 178.9 232.15 176.43 231.55 175.11 230.2 173.08 227.53 172.64 225.74 171.27 224.55 167.74 220.91 165.54 220.64 162.8 219.82 161.75 219.28 160.69 217.22 160.42 213.9 159.94 212.11 157.12 209.77 154.91 208.42 152.66 206.03 151.34 204.18 149.84 204.18 147.33 203.91 145.56 203.42 143.67 202.55 143.62 201.41 142.08 201.25 141.33 202.44 139.3 201.08 138.11 199.02 137.98 197.5 139.17 196.68 139.21 195.22 137.76 193.81 138.11 192.67 142.34 191.09 143.09 191.09 143.58 187.29 145.25 183.92 145.12 183.54 140.93 180.66 140.49 178.22 138.15 177.89 137.23 177.02 136.7 172.19 135.77 171.75 133.57 172.41 131.14 170.94 131.1 170.07 134.14 166.05 134.32 163.61 134.54 161.38 135.77 159.97 137.36 160.51 138.42 160.57 137.93 155.03 133.48 149.11 134.23 147.59 137.54 147.04 139.17 145.63 140.8 145.9 141.73 145.03 143.93 144.93 145.03 143.89 145.3 142.1 146.44 140.8 146.97 138.9 149.31 139.06 149.97 139.76 148.25 141.18 148.3 141.94 149.49 142.32 151.51 144.6 152.71 144.82 155.7 147.42 153.85 150.14 152.26 152.04 151.91 154.27 151.47 156.22 153.5 159.75 155.44 160.68 155.26 162.52 156.19 163.66 157.6 163.44 158.97 165.73 158.61 168.28 158.04 168.71 158.88 169.8 158.31 171.43 157.64 172.84 155.62 173.38 155.22 176.32 157.78 177.29 160.64 173.44 161.53 173.55 162.1 174.69 162.67 175.56 164.08 175.72 166.02 176.59 169.64 175.29 175.37 176.16 176.21 180.61 189.79 180.72 190.81 178.49 190.89 175.72 193.01 175.5 194.82 175.56 195.52 176.32 195.13 177.78 195.88 178.87 195.92 179.69 207.96 181.26 211.22 181.26 215.23 180.93 217.88 180.44 218.81 180.99 222.51 181.42 225.15 182.24"/><polygon id="_212687648" data-name=" 212687648" class="cls-2" points="102.39 147.26 100.54 149.49 99.13 150.36 100.85 153.07 99.48 155.41 99.7 156.11 101.47 157.47 101.25 159.59 99.13 160.51 98.95 161.27 100.81 164.64 101.29 165.46 102.39 168.39 103.72 169.42 105.17 170.89 106.05 171.38 107.68 172.35 109.4 171.86 111.12 170.45 112 171.05 114.61 175.83 116.68 178.87 119.63 182.51 122.1 184.3 124.88 187.02 125.41 189.13 126.25 189.9 127.04 191.58 127.75 192.29 129.03 193.32 130.88 193.7 131.67 193.86 133.45 194.52 134.89 194.29 137.1 197.28 137.98 197.5 139.17 196.68 139.21 195.22 137.76 193.81 138.11 192.67 142.34 191.09 143.09 191.09 143.58 187.29 145.25 183.92 145.12 183.54 140.93 180.66 140.49 178.22 138.15 177.89 137.23 177.02 136.7 172.19 135.77 171.75 133.57 172.41 131.14 170.94 131.1 170.07 134.14 166.05 134.32 163.61 134.54 161.38 135.77 159.97 137.36 160.51 138.42 160.57 137.93 155.03 133.48 149.11 134.23 147.59 137.54 147.04 139.21 145.58 138.42 142.7 137.54 142.53 137.05 143.57 133.97 141.99 131.8 140.04 131.89 136.83 132.11 135.15 129.25 133.47 126.47 126.84 122.72 126.51 122.59 128.79 121.49 129.01 120.21 130.04 120.08 131.67 118.8 133.41 117.12 134.33 115.75 135.31 113.42 139.22 111.03 140.85 109.32 141.4 104.95 143.73 102.39 147.26"/><polygon id="_212593864" data-name=" 212593864" class="cls-2" points="179.96 78.34 172.9 77.85 172.02 79.26 171.45 87.08 172.28 90.45 171.36 92.13 171.8 96.64 171.31 97.13 168.98 98.98 170.08 99.03 169.46 102.02 171.36 102.29 170.56 106.53 160.11 105.22 159.32 105.77 159.94 106.42 159.85 107.78 160.82 107.78 161.48 109.08 162.41 109.78 163.07 110.6 157.82 118.31 157.87 119.78 158.39 120.38 160.47 119.23 160.91 120 160.38 122.33 161.48 123.42 161.66 124.45 160.86 125.26 158.61 125.92 156.15 128.52 156.06 130.26 154.69 131.4 154.43 132.98 151.56 133.14 151.74 136.02 149.27 137.1 149.75 137.92 150.5 138.95 149.97 139.76 149.31 139.06 146.97 138.9 146.44 140.8 145.3 142.1 145.03 143.89 143.93 144.93 141.73 145.03 140.8 145.9 139.21 145.63 138.42 142.7 137.54 142.53 137.05 143.57 133.97 141.99 131.8 139.98 131.89 136.83 132.11 135.15 129.25 133.47 126.47 126.84 123.34 126.57 124.75 125.81 124.75 124.12 126.64 122.93 127.44 120.21 127.44 118.8 126.2 119.4 124.44 119.45 122.19 118.58 122.81 115.7 121.49 115.92 119.68 117.01 117.21 116.08 117.3 115.27 116.11 114.4 115.75 115.38 113.5 116.36 114.17 111.79 115.22 110.76 113.28 108.92 113.28 108.32 114.87 107.34 115.62 104.03 116.77 102.56 117.43 102.07 116.77 100.44 117.69 98.16 119.55 97.4 121.84 97.73 124.75 97.89 126.03 95.94 125.54 90.88 126.69 89.36 128.1 89.53 129.11 90.78 130.13 90.78 131.19 91.92 133.26 90.23 132.16 87.9 132.73 86.48 134.1 85.29 135.82 85.45 137.76 88.06 138.55 87.14 137.8 85.13 136.52 83.55 134.36 83.28 132.69 81.87 131.36 80.51 130 80.73 126.69 79.59 128.76 76.92 129.78 74.21 136.66 78.77 137.93 77.41 138.64 78.01 140.71 78.12 144.81 76.44 147.59 77.14 149.27 75.24 153.06 74.53 155.09 74.05 156.5 72.69 158.09 71.28 159.45 71.49 161.22 66.71 166.24 67.15 167.87 65.41 169.51 67.53 168.98 69.65 171.53 70.68 173.25 71.87 175.24 71.87 175.41 74.54 176.87 74.59 177.09 76.6 179.69 77.2 179.96 78.34"/><polygon id="_235957472" data-name=" 235957472" class="cls-2" points="219.82 135.58 219.6 137.38 217.44 140.15 216.95 142.48 214.04 145.41 212.94 145.41 210.56 143.57 206.37 145.9 206.28 147.31 207.69 148.07 207.74 149.54 205.93 150.84 207.74 151.66 208.31 150.63 208.53 151.55 211.84 153.02 215.01 153.18 216.03 153.78 214.44 157.09 214.66 161.76 213.2 164.37 213.34 167.57 215.94 172.08 221.5 176.21 223.57 179.31 225.38 181.15 225.15 182.24 222.51 181.42 218.81 180.99 217.88 180.44 215.23 180.93 211.22 181.26 207.96 181.26 195.92 179.69 195.88 178.87 195.13 177.78 195.52 176.32 194.82 175.56 193.01 175.5 190.89 175.72 190.81 178.49 189.79 180.72 176.21 180.61 175.37 176.16 169.64 175.29 166.02 176.59 164.08 175.72 162.67 175.56 162.1 174.69 161.53 173.55 160.64 173.44 157.78 177.29 155.22 176.32 155.62 173.38 157.64 172.84 158.31 171.43 158.88 169.8 158.04 168.71 158.61 168.28 158.97 165.73 157.6 163.44 156.19 163.66 155.26 162.52 155.44 160.68 153.5 159.75 151.47 156.22 151.91 154.27 152.26 152.04 153.85 150.14 155.7 147.42 152.71 144.82 151.51 144.6 149.49 142.32 148.3 141.94 148.25 141.18 149.97 139.76 150.5 138.95 149.75 137.92 149.27 137.1 151.74 136.02 151.56 133.14 154.43 132.98 154.69 131.4 156.06 130.26 156.15 128.52 158.61 125.92 160.86 125.26 161.66 124.45 161.48 123.42 160.38 122.33 160.91 120 160.47 119.23 158.39 120.38 157.87 119.78 157.82 118.31 163.07 110.6 162.41 109.78 161.48 109.08 160.82 107.78 159.85 107.78 159.94 106.42 159.32 105.77 160.11 105.22 170.56 106.53 171.36 102.29 169.46 102.02 170.08 99.03 168.98 98.98 171.31 97.13 171.8 96.64 171.36 92.13 172.28 90.45 171.45 87.08 172.02 79.26 172.9 77.85 179.96 78.34 179.96 79.91 180.57 80.4 182.69 79.97 183.09 80.29 182.78 86.7 183.18 87.63 185.07 87.73 185.65 89.36 186.57 89.74 187.54 88.49 188.56 88.98 188.82 89.69 189.75 90.56 189 98.05 190.27 98.6 190.72 101.26 192.04 101.31 192.88 102.02 191.86 104.95 192.7 104.57 193.05 106.2 193.32 107.99 195.17 109.4 199.49 111.2 200.68 110.65 202.93 112.34 203.59 113.42 204.65 113.15 206.28 116.3 206.5 118.91 208.27 120.27 206.1 122.66 205.93 124.23 205.09 124.07 205.18 127.71 206.1 129.07 203.46 130.42 205.93 133.09 207.56 134.22 210.07 134.6 212.94 134.93 213.87 135.85 214 137.1 215.19 138.03 216.6 137.81 218.98 135.09 219.82 135.58"/><path id="_212595608" data-name=" 212595608" class="cls-2" d="M293.77,73.78l-.53,7-3.66.11-.4,1.36L285,83.88l.22.87-2.82,1,1.1.71-.13,1.25-1.41.05-2,1-1.06.54-2.82,1-.44,2.55-2.12.87-.44,1.68-2.2.27L268.37,98l-.62,1.41-.84.16-1.37,2.06-.57-.43.75-2-7.54-2.61-4.37-4.83-3.57,1.36-1.37-.05-.71.54-2.07-1.36h-2.82l-.57-.49-.49-1.52L241,88.71l-.4-1.3.13-3.37L240.46,82l-.53-.65.09-2.55-1-.22-.88-.6L235,74.21h-.53L233.88,69l0-3.53,1.41-1.74-.53-.6,0-1.3,2.87.22-.13-7.39,2.69-2.55,2.2-.49h1.72L246,53.35l1.23.27,1.9-1.79,7.5-.76.93-2.28,3.57.76.4-.54-1.28-2.55,1.1-1.14,1,.22,1.85-1.63-1.9-2.28.62-1.36,5.38-1,1.06.92.71,1.9,1.46,1,1.85.54,1.46,2,.66.65,1.41.38.35-.54,1.63.76,4.19,4.4-.22.81-.79,1,.71,1.19h.84l.66-.87,6,.33.62.6,3.62,3.37,1.54-.11.49.6,0,4.67-.71,1.09-.09,1.36-2.56,2.34.09,3.8.53,2.34Z"/><polygon id="_215374424" data-name=" 215374424" class="cls-2" points="240.76 84.04 239.09 84.31 237.72 84.09 236.75 83.61 234.19 83.66 232.92 83.44 230.89 82.19 229.25 83.99 228.37 84.64 228.2 86.21 227.4 88.11 229.12 88.11 229.56 88.49 229.43 90.18 228.81 90.78 228.15 90.94 227.54 91.53 222.51 91.59 221.63 93.38 220.35 93.6 220.22 93.82 218.98 93.71 218.76 93.82 219.64 94.36 217.26 95.01 216.91 94.63 216.51 94.85 216.51 95.34 214.04 98.38 212.76 95.99 211.26 95.5 208.49 95.66 207.78 96.15 204.96 96.64 205.36 99.14 204.65 99.9 200.5 100.33 198.78 101.47 196.58 102.13 195.3 103 194.55 104.73 192.75 104.57 193.05 106.2 193.32 107.99 195.17 109.4 199.49 111.2 200.68 110.65 202.93 112.34 203.59 113.42 204.65 113.15 206.28 116.3 206.5 118.91 208.27 120.27 206.1 122.66 205.93 124.23 205.09 124.07 205.18 127.71 206.1 129.07 203.46 130.42 205.93 133.09 207.56 134.22 210.07 134.6 212.94 134.93 213.87 135.85 214 137.1 215.19 138.03 216.6 137.81 218.98 135.09 219.82 135.58 221.28 134.88 223.66 132.22 225.38 131.78 225.55 130.59 227.49 128.74 230.31 128.52 230.84 127.82 230.62 126.51 232.03 124.88 230.4 124.94 228.9 123.31 229.03 122.44 231.86 122.33 232.03 121.73 230.93 121.46 231.72 120.54 233.75 120.59 236.66 120.16 237.06 119.18 239.88 118.15 241.29 119.02 242.18 118.31 242.4 117.06 249.45 115.76 249.98 110.55 253.68 110.49 253.6 108.05 267.75 109.73 268.63 109.4 268.75 109.06 267.88 107.56 268.19 106.69 270.22 106.04 271.19 104.41 271.81 100.5 271.15 99.57 267.75 99.41 266.91 99.57 265.55 101.64 264.97 101.2 265.72 99.19 258.18 96.59 253.82 91.75 250.25 93.11 248.88 93.06 248.17 93.6 246.1 92.24 243.28 92.24 242.7 91.75 242.22 90.23 241.03 88.71 240.63 87.41 240.76 84.04"/><polygon id="_213131184" data-name=" 213131184" class="cls-2" points="269.21 313.08 269.21 314.49 268.37 314.65 268.19 316.77 265.72 318.07 265.59 319.38 266.12 322.15 264.22 324.54 262.72 325.03 260.74 324.21 257.7 326.27 258.62 327.52 258.23 328.07 258.84 330.19 258.36 331.44 256.51 329.7 255.23 329.86 253.73 333.93 251.7 337.41 252.54 339.15 254.12 338.17 254.61 337.74 254.61 336.87 256.2 336.98 257.7 336.76 258.31 337.25 259.46 336.59 261.67 337.08 262.63 337.84 262.33 341.37 264.49 340.39 265.55 342.95 265.19 344.69 263.78 344.63 263.61 346.59 262.72 347.95 261.93 347.29 261 348.22 263.43 350.28 259.42 356.15 259.29 357.45 261.09 358.97 262.46 359.46 264.09 359.02 266.56 357.61 268.72 357.72 273.44 358.48 274.36 358.05 274.19 359.02 278.38 358.43 279.17 355.88 281.16 355.66 281.73 356.26 284.33 352.83 282.35 352.45 282.44 351.86 284.59 349.47 284.64 348.87 282.3 347.84 282.57 345.39 282.04 341.64 280.45 341.21 280.54 339.25 282.83 339.42 284.15 335.94 284.55 335.94 285.08 333.23 286.76 332.36 288.56 333.5 291.74 331.06 290.86 329.91 291.83 328.83 293.94 328.83 293.41 327.96 293.68 327.25 294.78 327.36 294.87 324.97 294.38 322.47 293.15 320.74 293.5 319.05 294.78 318.78 294.91 318.13 292.18 318.29 288.83 317.26 286.54 317.42 284.99 318.73 280.27 317.97 277.67 311.61 274.85 315.47 274.01 315.85 274.59 316.93 271.15 317.48 270.62 316.55 271.01 313.35 270.31 312.81 269.21 313.08"/><path id="_235931296" data-name=" 235931296" class="cls-2" d="M264.8,304.22l.79-2.88-.18-1.3-1.81.11-.79-1.47L261,299l-1.59-3.26-3.57-.49-1.06-1.09,2.12-4.07-2-3.37v-1.63l1.28-.92,1.5.33,2.16,2.61,1.06,1.09,1.59-.33.26-.65-.31-1.3.18-2.61.49-.43,3-.16,1.63-.87-.13-4.13.57-.38.31-1.09h-1.63l-1.15.22-3.22-1.3-2-2,1.59-2.34,3.71-2.39L266,267l-1.37-1.85.13-1.19,1.19-1,.49-2.5,1.28-1.14,1.24-.11.44-.76,1,.43.75-.22-.13-.71,1.23.11.49.87.66.16.71-1,.13-1.25,1.23.43.4-.71,1.68,1.2.75-.82,1.32.49,1.63-.65.13-1,.62,1.14h.4l-.53-2.77.13-1,1.41-.49.48-.92,2.69-.27,2.25.11.84,1.47-1.63.81.09,1.09,1,.27.18-1.09,1.19.43.53,1-2.29.16-1.41,1.52-1.9-.11-.57.65.53,1.74,1.81,2.23-.53,3.42-1,2.12-1.85.05-1.37.27-1.63.43-.49,1.9L279,271.15l-2-.65-1.19.76v3l.57,1v.65l-2,1.47-.09,2.66,2.43,4,.44,1.25.57.81.66.16,1.68-.76,1.68.05,1.76,1.52.62,2.12,1.41,1.25.57.65-.22,1.41.18.38,1.85-1.19.62.76-1.1.92,0,1.14-1.46.76-.18.6,1.54.33.13,1.36,1.1,1,.88.16.18-1.63,3,1.25.31-.6-.62-1.09.53-.49.79.11.79.33.57.43-.4,1,.44.54,1.37.43.26,1.19,1.5.6,1.46-1,.88.76,1.9-.71.4.81-1.81,1.09.66,1.52,1.85-.16,2.34,3.2-.57,1.25-.09,2.82-1.41.65-3.13-.16-4.67,2.06-.44,1.52-1.41,1.09-.22,1.14.93,1.3-2.73.16-3.35-1-2.29.16-1.54,1.3-4.72-.76-2.6-6.35-2.82,3.86-.84.38.57,1.09-3.44.54-.53-.92.4-3.2-.71-.54-1.1.27-.57-.81,1.68-2.5-1.76-2.61,0-.71-1.94-1.14L265,303.9m24-7-.84-1-.35-.71,1.28-1.14,1.5.71L289,296.95Z"/><polygon id="_215244360" data-name=" 215244360" class="cls-2" points="213.29 279.13 216.91 278.81 217.31 280.82 218.85 280.87 218.59 277.07 220.39 276.74 222.95 276.58 222.33 278.97 223.17 280.33 223.96 279.89 224.45 279.35 225.86 279.73 224.8 280.98 225.11 282.01 226.3 282.01 227.76 283.69 228.81 282.55 230.36 284.35 231.55 283.86 232.74 281.63 234.06 279.57 237.54 279.4 240.81 279.95 242.31 279.57 242.66 278.32 242.4 276.36 241.82 276.04 241.25 275.38 241.56 274.79 242.88 274.25 241.6 272.51 241.96 270.44 242.09 269.19 241.16 269.08 240.59 270.6 238.03 270.66 237.59 272.34 236.88 272.4 236.22 270.88 237.72 267.45 237.46 265.88 236.09 264.79 237.99 264.52 241.03 261.97 240.46 259.14 236.71 257.89 236.93 256.75 238.82 255.13 234.41 253.39 230.09 251.32 227.14 254.96 224.8 253.06 220.61 255.02 217.04 255.62 216.47 254.04 209.77 254.8 209.72 257.03 207.16 258.17 206.41 259.14 206.85 260.23 206.5 262.89 205.09 263.6 203.72 265.06 204.61 265.44 206.81 264.63 207.74 265.72 207.74 266.91 206.94 267.13 207.03 268.87 208.18 270.44 209.72 270.71 210.12 271.96 208.27 273.75 208.13 274.84 209.32 276.47 211.26 276.58 213.29 279.13"/><polygon id="_235785408" data-name=" 235785408" class="cls-2" points="227.4 381.56 228.46 383.95 226.34 387.49 225.06 386.73 225.11 385.69 223.83 384.39 224.49 383.46 223.61 382.7 222.69 383.25 221.14 381.51 218.5 384.71 218.37 386.13 215.9 388.14 215.06 391.99 216.42 393.95 217.53 394.76 217.66 395.8 218.54 397.64 218.05 398.89 215.45 400.68 216.64 401.33 216.12 402.58 215.59 402.86 215.54 403.51 216.25 404.21 215.94 407.63 214.04 407.53 214.35 411.38 216.47 409.48 218.28 410.24 218.28 411.11 219.38 411.82 218.85 413.12 220.39 413.5 221.28 412.74 221.76 413.01 221.89 418.33 219.55 419.58 216.38 418.44 215.98 417.57 215.32 417.3 214.22 418.39 211.88 417.41 209.01 419.8 204.61 416.65 203.72 418.06 200.81 416.43 200.11 415.67 200.11 414.75 198.13 414.31 196.98 415.67 193.54 416.76 192.61 417.74 189.88 418.17 186.26 420.13 185.47 418.61 185.87 418.06 187.36 417.68 187.63 415.35 188.56 415.18 188.42 417.3 190.85 415.4 190.01 412.85 189.61 410.4 187.23 407.58 186.7 407.85 184.94 412.47 182.78 413.77 182.16 413.12 179.03 413.72 177.53 413.18 175.28 413.01 174.53 412.63 175.11 411.38 173.39 409.97 173.34 407.04 171.23 405.95 168.8 405.74 166.02 404.1 165.36 404.65 163.16 404.49 161.79 405.19 160.25 404 160.33 402.69 159.72 401.99 161.35 400.57 162.32 394.49 168.23 394.93 170.92 393.03 171.84 393.24 174.44 390.85 174.71 389.01 176.3 389.44 176.87 388.63 176.6 387.7 175.37 386.78 171.8 387.81 171.75 385.48 174.75 383.68 174.44 382.7 173.52 383.36 173.3 382.49 176.74 379.67 178.02 379.67 179.12 379.01 181.24 379.07 181.94 378.14 180.71 375.92 182.82 374.61 184.06 375.54 184.76 375.54 185.6 374.45 187.14 375.86 190.58 377.06 191.69 376.62 191.91 374.29 191.86 372.6 193.76 370.05 195.96 370.16 196.27 367.93 197.82 368.26 198.74 367.66 200.06 369.24 201.12 369.83 201.39 370.97 202.27 370.59 204.61 367.88 205.75 370.11 207.91 371.3 211.13 371.3 212.37 373.53 214.62 373.64 217.09 374.29 218.5 373.58 218.59 375.26 220.22 375.54 221.41 377.33 223.74 377.71 225.15 375.54 225.91 375.43 227.18 375.81 227.98 376.57 227.49 379.07 226.39 379.99 225.99 381.02 227.4 381.56"/><polygon id="_235792888" data-name=" 235792888" class="cls-2" points="112.36 366.68 114.52 364.08 115.09 362.83 114.78 361.69 113.86 360.98 114.03 360.28 114.83 360.17 115.97 357.67 115.36 356.58 114.65 357.29 113.55 356.8 113.02 355.82 113.42 354.63 114.61 353.38 114.96 351.58 116.33 351.37 118.05 349.41 120.12 348.38 120.43 347.02 119.72 344.69 119.94 344.04 121.4 344.52 122.19 344.31 124.09 341.37 127.26 339.53 129.03 339.09 129.34 338.6 130.61 338.44 132.86 338.5 134.98 340.94 135.02 342.3 133.39 343.87 133.22 346.7 137.58 350.28 138.81 352.45 149.13 352.94 150.76 353.87 154.69 354.36 158.39 355.12 159.06 356.09 159.63 358.32 158.66 359.24 159.85 361.8 158.26 363.05 156.85 364.94 156.15 371.19 156.76 372.77 156.45 379.28 155.84 379.88 153.76 379.07 151.87 381.4 152.49 382.76 152.31 385.15 149.88 388.19 147.99 388.08 146.27 389.6 144.77 388.95 143.31 388.95 141.5 388.46 142.74 384.5 144.86 380.32 137.93 380.81 135.07 379.45 131.01 378.69 127.09 377.49 126.07 376.57 124.75 376.24 122.63 374.34 122.19 371.57 119.9 369.29 114.74 369.07 112.53 368.48 112.36 366.68"/><polygon id="_235780784" data-name=" 235780784" class="cls-2" points="139.65 316.61 140.4 315.3 139.48 314.16 139.56 313.08 143.31 310.25 142.34 309.17 141.11 307.97 136.7 308.24 134.94 309.06 135.2 309.87 133.17 310.9 132.73 309.93 131.8 309.93 131.8 311.23 133 311.39 136.26 317.1 136.88 315.25 139.65 316.61"/><polygon id="_235740280" data-name=" 235740280" class="cls-2" points="63.24 337.25 61.6 337.46 61.12 338.33 60.37 338.55 59.88 340.61 57.86 340.94 57.59 339.36 54.33 336.6 54.81 333.88 53.84 334.2 52.34 330.08 52.17 328.72 49.48 325.57 44.01 328.88 42.47 326.87 41.59 323.45 40 321.71 40.75 321.01 40.7 319.92 39.6 319.05 36.34 318.94 31.18 314.65 30.39 311.72 29.77 311.07 27.91 310.9 28.53 309.82 30.21 309.66 30.61 308.79 28.62 306.72 28.36 305.64 27.96 305.09 34.35 302.49 34.49 301.62 36.25 301.13 36.73 300.48 46.79 300.91 46.61 302.16 48.16 302.21 48.07 303.63 49.48 303.52 50.45 304.82 51.59 304.82 52.17 305.69 53.67 305.53 54.95 307.81 55.65 307.75 56.93 308.57 59 310.36 60.99 310.09 62.27 310.25 65.75 310.09 69.1 307.59 72.23 307.97 73.55 307.86 74.52 307.97 77.57 309.33 78.05 311.67 79.2 312.37 81.45 312.64 82.99 313.56 83.65 313.56 84.89 313.24 86.08 313.46 85.94 313.89 84.75 315.36 84.62 316.83 83.7 317.21 82.33 316.72 81.89 315.58 78.8 314.87 78.05 316.5 76.29 316.66 75.54 316.99 74.57 319.43 73.55 319.38 72.98 318.18 71.7 318.13 71.39 319 72.23 320.41 71.13 322.31 70.56 322.31 70.03 325.46 66.19 325.41 65.26 326.98 63.5 326.71 62.93 327.36 64.21 328.45 63.24 337.25"/><polygon id="_235757768" data-name=" 235757768" class="cls-2" points="107.06 365.45 105.61 366.19 105.48 370.92 103.67 369.83 96.31 370 97.23 368.1 98.56 369.07 100.01 368.04 99.97 365.43 104.29 363.81 106.23 363.7 107.06 365.45"/><path id="_215243600" data-name=" 215243600" class="cls-2" d="M112.36,366.68l2.16-2.61.57-1.25-.31-1.14-.93-.71.18-.71.79-.11,1.15-2.5-.62-1.09-.71.71-1.1-.49-.53-1,.4-1.19,1.19-1.25.35-1.79,1.37-.22,1.72-2,2.07-1,.31-1.36-.71-2.34.22-.65,1.46.49.79-.22,1.9-2.93,3.17-1.85,1.76-.43.31-.49,1.28-.16-.53-1.52v-1.63L129.6,333l-1.37-.49-1.59.82-2.34-1.68.13-2.07.66-1,0-2.39-1-.22-.84.22.31,2.61-2.56,2.5-4.23-3.53L115,328.83l.4,2.23-2.12.87-4.54-1-5.25,6.9-1.59,4.51-1.15.81-1.06-.16-.53.49-1.9-.49-3.22,1-3.4,1.25-1.19,1.36.79,1.19-.49.76-2.47,2.45-1.5-.05L84,349.2l-1.54-.33L81.09,351l-.62-.05L80.26,352l-.76,0-1.84,4.92.24.48,2.09.08.64-.72.8-.08.72-2.17,4.26-1,2.17,2.33-2.89,3.61,1,1.29,1.53-1.53,3,1.45,1.61-.16,3.61,2.09L94.62,365l.32,1-.4.88a6,6,0,0,0,.4,1.29l-.56,1-1.12.4-.6,1.62,2,.09,1.15-.6.49-.71.93-1.9,1.32,1,1.46-1,0-2.61,4.32-1.63,1.94-.11.83,1.76.36.8.84.54,1.23-.71,2.87.6Z"/><polygon id="_235812112" data-name=" 235812112" class="cls-2" points="97.85 202.55 92.43 202.77 90.71 201.08 90.97 198.59 92.56 197.06 92.38 195.98 88.02 195.87 86.25 194.62 84.4 189.68 86.3 187.94 86.47 185.93 80.12 185.66 78.14 184.63 75.32 184.74 74.22 185.28 73.86 187.34 74 190.11 57.5 190.66 57.24 191.09 57.99 192.12 59.66 192.12 59.62 192.77 59.36 193.59 57.33 194.62 55.39 195.27 55.39 197.39 55.3 197.93 57.72 197.82 58.69 199.02 60.99 200.49 62.53 202.01 62.88 203.53 64.56 204.78 65.66 206.08 66.5 207.87 66.76 211.02 65.84 211.84 63.55 213.36 63.59 214.82 65.26 214.66 65.22 215.26 64.73 216.51 65.31 216.83 66.19 218.14 66.01 218.79 64.69 219.55 64.69 220.31 65.22 220.58 66.19 219.77 68.84 219.5 69.36 219.82 69.23 220.26 68.13 220.91 68.39 221.67 68.92 222.21 69.67 221.72 70.51 221.45 71.35 221.78 71.79 221.72 72.23 221.34 73.2 221.88 73.51 221.78 73.91 219.55 74.22 219.12 74.79 219.44 75.27 220.31 74.61 221.23 74.57 221.78 74.97 221.99 75.85 221.4 76.38 221.45 76.55 222.16 76.77 223.08 78.01 223.68 78.23 224.17 79.77 223.46 82.15 223.57 83.78 224.6 84.97 223.24 86.65 223.3 89.03 220.15 91.68 220.47 94.63 223.35 95.38 223.84 96.13 223.79 97.28 222.92 99.61 222.81 100.45 222.97 101.86 221.45 102.7 220.69 104.16 220.2 104.6 218.03 103.72 216.56 100.23 215.86 101.2 211.3 101.03 210.59 98.34 210.97 97.85 202.55"/><polygon id="_236418264" data-name=" 236418264" class="cls-2" points="99.17 150.36 98.16 149.65 97.32 146.77 96.79 145.03 95.56 144.27 93.88 144.71 93.04 144.82 92.43 144.11 92.6 142.86 91.46 142.21 90.4 142.7 91.19 144.11 91.15 145.2 88.37 148.29 87.18 148.35 85.15 147.91 83.52 148.78 81.45 148.07 79.55 148.51 76.11 151.22 75.23 151.06 74.3 150.36 73.42 150.57 70.11 159.1 70.16 159.59 71.04 159.91 71.04 160.4 70.42 160.73 68.26 164.37 68.48 164.48 69.32 165.07 70.11 168.88 70.56 169.09 71.57 170.13 73.73 171.05 75.23 169.75 76.11 169.75 76.55 170.13 76.51 171 75.27 172.68 75.85 173.82 75.72 178.22 71.57 180.01 71.83 181.21 69.54 184.35 70.33 184.9 72.28 185.28 74.22 185.28 75.32 184.74 78.14 184.63 80.12 185.66 86.47 185.88 86.78 184.57 91.41 184.14 92.16 182.29 97.59 179.09 99.44 177.73 99.75 176.86 98.73 172.19 99.09 171.21 103.72 169.42 102.39 168.39 101.29 165.46 100.81 164.64 98.95 161.27 99.13 160.51 101.25 159.59 101.47 157.47 99.7 156.11 99.48 155.41 100.85 153.07 99.17 150.36"/><polygon id="_235836224" data-name=" 235836224" class="cls-2" points="231.46 189.95 227.76 191.69 227.4 191.36 221.63 193.43 218.54 193.81 214.7 195.6 210.91 195.98 207.82 197.17 206.72 197.06 205 197.93 204.21 199.4 204.12 200.54 205 200.65 205.36 201.74 206.68 201.95 206.81 203.2 206.46 204.13 204.34 205.38 203.68 206.46 201.91 206.84 201.56 207.44 203.02 209.72 203.9 209.83 203.77 213.63 203.86 214.61 204.87 215.04 206.85 215.04 206.9 216.02 208 216.67 206.85 217.71 207.56 218.57 207.65 219.66 208.49 220.26 208.62 222.43 209.01 223.68 208.49 224.11 208.22 224.76 209.28 225.91 209.5 227.64 208.62 228.29 209.28 229.11 209.19 230.47 206.72 232.26 200.15 232.59 198.21 233.94 195.22 235.63 197.33 239.1 196.93 239.81 195.7 240.35 196.58 242.58 193.54 242.74 193.49 243.5 196.14 244.1 196.58 244.75 196.32 246.06 195.17 247.3 197.29 250.62 198.3 251.59 199.71 251.97 200.59 251.38 202.75 252.08 204.21 250.62 204.74 251.27 208.18 252.08 209.55 252.9 209.77 254.75 216.47 254.04 217.04 255.62 220.61 255.02 224.8 253.06 227.14 254.96 230.09 251.32 234.41 253.39 238.82 255.13 236.93 256.75 236.71 257.89 240.46 259.14 240.98 258.65 242.97 255.45 243.06 254.75 242.13 253.71 241.2 254.15 240.76 253.01 236.93 248.55 237.59 245.51 240.19 243.67 240.9 242.53 241.38 241.55 241.29 240.03 243.01 239.81 244.95 240.73 247.07 240.62 246.98 239.43 244.16 239.32 243.94 238.78 244.78 238.23 246.94 237.58 248.61 234.43 253.42 234.65 254.74 234.54 256.55 233.07 256.29 232.15 254.92 232.26 254.26 228.08 254.12 227.43 251.97 226.94 250.69 226.18 245.26 225.8 244.65 226.34 243.94 228.68 243.1 230.69 239.57 232.15 238.12 230.47 240.28 228.73 242.26 225.91 243.1 225.09 244.16 224.71 244.34 223.52 242.13 223.08 241.38 223.79 241.03 225.04 240.28 225.63 239.75 224.76 240.68 206.84 241.16 188.7 237.99 188.86 236 189.51 233.75 191.14 231.46 189.95"/><path id="_216630536" data-name=" 216630536" class="cls-2" d="M122.73,126.51l-.14,2.28-1.1.22-1.28,1-.13,1.63-1.28,1.74-1.68.92-1.37,1-2.34,3.91L111,140.85l-1.72.54L105,143.73l-2.51,3.53-1.19-.33-.88-1.19-.62-2.23-1.19-6.08-3.35-7.88-3.44-3.42-1.94-3.37L88.77,119l-.57-4.4L88,108.21l.66-3,2.6-4.73,3-4.4.4-3.48.49-2.66.44-.87.57-1.14,1.06-1.47L98.82,85l3.53-5.81.09-1.85-1.19.05,0-4.07.44-1,1.19-1.3,1.28-1.41.48-2.06.13-.71,1-1,2.6-1.52L110,62.26l.75-2,.35-1,1.23-1.41,1.54.22.62.65-.66.49-.88.27,1.54,2.55.93-.87.53.16.09.6.31.76,1.1.65,3.92.54,1.1,1.14,1.19,3.86.88.76,2.07,1.09,2.56,3,.62.43-1,2.72-2.07,2.66L130,80.73l1.37-.22,1.32,1.36,1.68,1.41,2.16.27,1.28,1.57.75,2-.79.92-1.94-2.61-1.72-.16-1.37,1.19-.57,1.41,1.1,2.34-2.07,1.68-1.06-1.14h-1l-1-1.25-1.41-.16-1.15,1.52.48,5.05-1.28,2-2.91-.16-2.29-.33-1.85.76-.93,2.28.66,1.63-.66.49L115.62,104l-.75,3.31-1.59,1v.6l1.94,1.85-1.06,1-.66,4.56,2.25-1,.35-1,1.19.87-.09.81,2.47.92,1.81-1.09,1.32-.22-.62,2.88,2.25.87,1.76-.05,1.23-.6v1.41l-.79,2.72-1.9,1.19v1.68l-1.41.76m-.61-.05c.19,0,.42.05.61.05Z"/><path id="_236371384" data-name=" 236371384" class="cls-2" d="M334.69,67.81l.4-14-1-.92-.13-2.34-4-.27.17-4.73.93-1-.75-1.14.18-4.45L330,37.11l-.79-1.58-1.24-1L324.28,32l.44-4.51,11.77.22.57-6,5.78.05.53-12.93-26.24-.54L316,7l-1.59-.05-1.85-1.63-1.23.38-1.19,2.06,0,.92-1.54,1.14-2.82.16-1.41-2-1.9-3-1.37-.71V3.28l-11.33.05-.35,4.18-4.76,1,.31,2.66-.93.16-.4,1.25.79.92,1.06.05,1.23-.33-.35-1.41.57-.22,1.19.49,0,2.44-.31.76.44,2.44V21.2l1.32,1,2,6,.22,1.85-1.37,1-1.15-.43-.88.81.79,1.09-3.79-.27-2.12.16-2.16,2.28,2.07.6,1.5-.71-.17,1.3,2.07.05,1.19,1.25-.09,2.17-.71.87-2,1.58h-1l-.4,1.09-.71.54-1.46-.33-2.51,1.52-1.19.81-.44.71,1.63.76,4.19,4.4-.22.81-.79,1,.71,1.19h.84l.66-.87,6,.33.62.6,3.62,3.37,1.54-.11.49.6,0,4.67-.71,1.09-.09,1.36-2.56,2.34.09,3.8.53,2.34,1.37-.87,1.15.16,2.07,1.3.88-.16,1.94-.11.62.43,1.76-.16,1,1.25,1.19-.16,1-.76,1.59.38,2.07-1,1.32-.76.75-1.79.88-1.09L314.54,69l2.73-.38,1.94-1,2.2.33,2-1.09,1.76.11.18-.38,1.76.38,1.94-.76,1.15.43,1.72,1.63,2.38-.27.4-.2Z"/><polygon id="_235804648" data-name=" 235804648" class="cls-2" points="334.69 67.86 336.19 67.04 338.88 69.59 341.3 69.48 344.17 70.95 348.14 68.61 351.18 68.23 352.72 66.01 356.03 65.25 357.75 63.73 359.6 63.67 359.73 62.75 361.76 63.02 363.13 64.32 366.17 62.21 366.83 64.76 366.75 67.04 373.93 67.58 374.11 62.8 375.34 60.03 377.24 60.25 378.12 59.98 377.94 57.21 376.75 54.87 376.93 53.68 379.58 51.56 377.94 48.3 377.9 46.67 382.75 41.3 381.43 39.18 382.8 36.14 380.9 35.54 382.36 33.2 383.19 32.23 383.77 30.76 385.44 29.13 384.51 27.61 386.5 26.63 386.99 27.93 388.18 27.45 387.74 26.25 391.13 25.55 392.45 26.31 393.51 25.44 394.57 25.55 394.75 23.75 393.33 21.69 393.42 19.68 392.06 19.46 390.25 17.83 389.41 17.83 387.69 16.58 386.54 16.58 385.26 16.91 382.84 15.66 379.93 15.61 376.01 14.19 371.24 13.87 370.54 9.69 343.37 8.82 342.85 21.74 337.07 21.69 336.5 27.66 324.72 27.45 324.28 31.95 327.98 34.51 329.22 35.54 330.01 37.11 330.45 38.96 330.28 43.41 331.03 44.55 330.1 45.59 329.93 50.31 333.94 50.58 334.07 52.92 335.08 53.84 334.69 67.86"/><polygon id="_216652696" data-name=" 216652696" class="cls-2" points="280.1 104.52 280.94 104.25 283.1 106.09 285.65 108.7 288.04 108.81 292.84 106.8 293.77 106.74 295.71 105.28 296.46 101.86 297.96 101.53 298.97 100.33 298.18 99.57 298.26 98.38 300.07 98.98 301.09 98.65 301.66 97.46 299.24 96.53 299.54 95.5 301.88 93.76 302.32 92.57 300.47 91.43 300.2 90.61 303.51 90.78 305.06 91.97 307.08 90.94 309.24 90.94 310.13 89.42 311.14 89.47 311.98 88.87 312.86 86.97 317.31 87.19 318.55 85.4 319.52 85.4 319.92 89.25 321.7 87.41 321.02 86.65 322.56 85.78 325.65 85.23 326.84 83.88 326.57 82.41 327.46 81.92 326.75 80.18 324.63 79.53 323.49 80.02 323.66 82.57 321.28 80.45 323.31 78.07 324.5 78.61 324.81 78.28 324.32 77.09 325.16 76.38 326.66 78.34 327.41 77.96 327.1 76.82 331.34 74.26 329.62 72.15 327.28 71.66 327.81 69.76 324.99 67.37 325.16 66.99 323.4 66.88 321.42 67.96 319.21 67.64 317.27 68.62 314.54 69 313.3 70.41 312.42 71.49 311.67 73.29 310.35 74.05 308.27 75.08 306.69 74.7 305.72 75.46 304.53 75.62 303.56 74.37 301.79 74.54 301.18 74.1 299.24 74.21 298.35 74.37 296.28 73.07 295.13 72.91 293.77 73.78 293.24 80.73 289.58 80.84 289.18 82.19 284.99 83.88 285.21 84.75 282.39 85.78 283.49 86.48 283.36 87.73 281.95 87.79 279.96 88.77 278.91 89.31 276.08 90.29 275.64 92.84 273.53 93.71 273.09 95.39 270.88 95.66 268.37 98 267.75 99.47 271.15 99.57 271.81 100.5 271.19 104.41 270.22 106.04 268.19 106.69 267.88 107.56 268.72 109.08 269.47 108.59 270.26 108.53 271.54 108.05 276.97 105.39 280.1 104.52"/><polygon id="_236160800" data-name=" 236160800" class="cls-2" points="321.7 87.41 319.92 89.25 319.52 85.4 318.55 85.4 317.31 87.19 312.86 86.97 311.98 88.87 311.14 89.47 310.13 89.42 309.24 90.94 307.08 90.94 305.06 91.97 303.51 90.78 300.2 90.61 300.47 91.43 302.32 92.57 301.88 93.76 299.54 95.5 299.24 96.53 301.66 97.46 301.09 98.65 300.07 98.98 298.26 98.38 298.18 99.57 298.97 100.33 297.96 101.53 296.46 101.86 295.71 105.28 293.77 106.74 292.84 106.8 288.04 108.81 285.65 108.7 283.1 106.09 280.94 104.25 280.05 104.46 281.6 105.49 281.16 107.12 281.51 108.37 280.41 109.84 280.01 110.87 280.14 111.52 282.96 111.41 283.89 113.86 282.3 116.79 281.95 118.64 283.71 119.02 284.37 120.1 282.96 142.81 284.11 143.02 286.93 141.07 290.99 140.96 292.09 140.31 294.21 138.08 295.88 138.13 297.65 139.66 297.87 133.19 305.89 133.74 307.3 134.82 308.1 134.93 309.02 134.39 310.61 134.77 310.7 137.21 312.99 137.43 313.7 135.42 314.71 136.02 317.4 136.13 318.29 133.84 320.4 133.14 320.97 133.9 321.37 133.57 321.15 130.26 323.49 130.1 324.81 130.48 324.9 131.46 327.32 131.35 327.37 130.04 328.56 129.17 328.6 128.14 326.18 128.03 326.57 123.2 328.16 123.36 330.41 119.18 330.06 117.28 329.62 116.52 328.95 116.52 328.25 117.44 327.15 116.84 326.97 113.64 329 112.45 328.03 111.36 327.15 111.79 326.22 109.08 326.09 108.05 327.46 107.18 328.29 105.98 331.69 106.14 332.22 101.15 330.28 101.15 328.74 98.54 329.75 96.15 329 94.58 328.12 92.51 325.96 93.06 325.78 94.14 324.02 94.79 323.09 90.45 322.39 88.17 321.7 87.41"/><polygon id="_215369904" data-name=" 215369904" class="cls-2" points="179.96 78.34 179.69 77.2 177.09 76.6 176.87 74.59 175.41 74.54 175.24 71.87 173.25 71.87 171.53 70.68 168.98 69.65 169.51 67.53 167.87 65.41 170.74 64.32 171.62 62.59 172.68 61.88 175.37 60.52 175.37 59.44 176.87 58.62 177.57 56.12 177 53.57 178.5 52.38 178.77 52 177 51.62 177.09 51.18 177.09 50.2 180.49 49.77 183.88 46.24 185.51 45.75 188.12 46.67 189.48 46.02 192.79 46.46 194.07 46.4 195.79 43.31 195.74 39.02 199.71 34.07 199.58 31.85 201.21 30.32 203.81 31.36 204.78 30.7 209.1 31.14 211.66 34.18 211.44 38.58 212.1 40.26 214.84 41.02 216.73 40.1 217.88 40.26 217.92 41.46 217.79 42.49 219.11 43.69 219.29 44.61 220.13 45.31 223.48 45.8 225.42 47.22 225.42 48.09 224.32 49.88 225.82 51.07 226.17 51.89 225.77 52.21 223.92 51.07 223.08 51.51 222.73 52.43 223.39 54.06 223.7 54.6 223.35 55.74 222.07 56.83 221.98 57.54 222.24 58.41 223.48 59.27 224.58 58.73 225.51 57.86 226.13 57.48 226.7 57.92 228.64 57.92 231.99 59.65 231.46 61.12 232.47 61.83 234.77 61.88 234.81 63.18 235.34 63.78 233.93 65.52 233.88 69.05 234.46 74.21 234.99 74.21 238.16 77.96 239.04 78.56 240.01 78.77 239.93 81.33 240.46 81.98 240.76 84.04 239.09 84.31 237.72 84.09 236.75 83.61 234.19 83.66 232.92 83.44 230.89 82.19 229.25 83.99 228.37 84.64 228.2 86.21 227.4 88.11 229.12 88.11 229.56 88.49 229.43 90.18 228.81 90.78 228.15 90.94 227.54 91.53 222.51 91.59 221.63 93.38 220.35 93.6 220.22 93.82 218.98 93.71 218.76 93.82 219.64 94.36 217.26 95.01 216.91 94.63 216.51 94.85 216.51 95.34 214.04 98.38 212.76 95.99 211.26 95.5 208.49 95.66 207.78 96.15 204.96 96.64 205.36 99.14 204.65 99.9 200.5 100.33 198.78 101.47 196.58 102.13 195.3 103 194.55 104.73 192.75 104.57 191.86 104.95 192.88 102.02 192.04 101.31 190.72 101.26 190.27 98.6 189 98.05 189.75 90.56 188.82 89.69 188.56 88.98 187.54 88.49 186.57 89.74 185.65 89.36 185.07 87.73 183.18 87.63 182.78 86.7 183.09 80.29 182.69 79.97 180.57 80.4 179.96 79.91 179.96 78.34"/><polygon id="_236317912" data-name=" 236317912" class="cls-2" points="154.87 208.36 154.43 209.39 151.69 212.71 151.29 213.25 149.57 213.36 149.35 215.04 148.52 215.15 146.31 215.91 143.8 218.41 142.17 217.49 140.84 217.76 139.52 216.51 139.08 216.89 137.1 218.41 134.23 220.15 131.98 220.69 129.86 220.75 128.19 220.26 129.16 216.84 129.78 216.02 131.28 212.76 129.42 212 129.51 210.32 132.47 210.48 132.29 209.67 131.85 208.85 131.1 208.96 130.79 207.87 132.03 204.89 129.6 201.41 129.69 198.97 130.75 197.61 132.82 196.85 133.92 195.87 133.39 194.35 134.89 194.29 137.1 197.28 137.98 197.45 138.11 199.02 139.3 201.08 141.33 202.44 142.08 201.25 143.62 201.41 143.67 202.55 145.56 203.42 147.33 203.91 149.84 204.18 151.34 204.18 152.66 206.03 154.87 208.36"/><polygon id="_236297952" data-name=" 236297952" class="cls-2" points="104.16 220.2 104.6 218.03 103.72 216.56 100.23 215.86 101.2 211.3 101.03 210.59 98.34 210.97 97.85 202.55 103.67 201.25 105.48 204.45 113.02 203.15 117.25 203.31 117.61 205.32 121.66 205.32 122.19 207.55 128.45 207.22 129.47 210.37 129.42 212 131.28 212.76 129.78 216.02 129.16 216.84 128.19 220.26 126.42 219.33 124.31 218.36 120.87 218.63 119.11 219.71 116.24 220.2 115.62 219.5 115.14 217.49 114.34 216.4 113.33 215.91 112.49 216.35 111.74 217.49 110.59 219.17 109.18 219.93 107.46 220.64 105.74 220.64 104.16 220.2"/><polygon id="_216680440" data-name=" 216680440" class="cls-2" points="103.67 169.47 99.09 171.21 98.73 172.19 99.75 176.86 99.44 177.73 97.59 179.09 92.16 182.29 91.41 184.14 86.78 184.57 86.47 185.88 86.3 187.94 84.4 189.68 86.25 194.62 88.02 195.87 92.38 195.98 92.56 197.06 90.97 198.59 90.71 201.08 92.43 202.77 97.85 202.55 103.67 201.25 105.48 204.45 113.02 203.15 117.25 203.31 117.61 205.32 121.66 205.32 122.19 207.55 128.45 207.22 129.51 210.37 132.47 210.48 132.29 209.67 131.85 208.85 131.1 208.96 130.79 207.87 132.03 204.89 129.6 201.41 129.69 198.97 130.75 197.61 132.82 196.85 133.92 195.87 133.39 194.35 131.67 193.86 130.88 193.7 129.03 193.32 127.75 192.29 127.04 191.58 126.25 189.9 125.41 189.13 124.88 187.02 122.1 184.3 119.63 182.51 116.68 178.87 114.61 175.83 112 171.05 111.12 170.45 109.4 171.86 107.68 172.35 106.05 171.38 105.17 170.89 103.67 169.47"/><polygon id="_235799272" data-name=" 235799272" class="cls-2" points="244.29 348.65 243.72 344.31 245.22 343.55 244.25 342.89 243.1 343.65 241.78 342.84 241.07 340.83 239.04 341.59 238.12 340.12 239.09 337.52 238.25 335.89 236.93 335.35 235.52 338.39 233.22 337.46 231.5 338.5 225.33 343.33 224.05 343.22 221.28 343.98 221.05 345.01 221.89 348.11 220.74 349.63 216.47 350.71 214.66 352.07 212.9 352.45 212.63 354.63 214 356.04 215.76 355.82 218.05 357.88 219.11 359.3 218.76 361.42 217.97 362.67 215.41 364.73 214.31 365.16 211.62 365.05 210.6 363.21 209.68 363.1 208.71 363.86 205.4 365.33 204.61 367.82 205.75 370.11 207.91 371.3 211.13 371.3 212.37 373.53 214.62 373.64 217.09 374.29 218.5 373.58 218.59 375.26 220.22 375.54 221.41 377.33 223.74 377.71 225.15 375.54 225.91 375.43 227.18 375.81 227.98 376.57 227.49 379.07 226.39 379.99 225.99 381.02 227.4 381.56 228.81 380.7 228.64 372 229.61 371.57 230.62 371.84 231.9 372.55 238.16 372.17 238.87 372.82 240.01 372.66 241.6 371.63 241.43 369.45 242.66 367.99 241.47 366.9 241.38 364.62 243.1 362.67 243.28 360.71 240.98 358.7 241.34 358.26 242.31 358.86 242.79 358.32 242.22 357.34 241.91 356.53 242 353.65 244.29 349.85 244.29 348.65"/><polygon id="_235806472" data-name=" 235806472" class="cls-2" points="177.8 260.56 181.1 257.19 184.06 258.44 185.38 257.62 184.32 255.29 183.88 252.84 184.37 251.92 185.47 251.54 187.54 249.75 188.56 249.86 191.03 249.75 191.91 249.86 193.27 251.76 197.33 250.62 198.3 251.59 199.71 251.97 200.59 251.38 202.75 252.08 204.21 250.62 204.74 251.27 208.18 252.08 209.55 252.9 209.77 254.75 209.72 257.03 207.16 258.17 206.41 259.14 206.85 260.23 206.5 262.89 205.09 263.6 203.72 265.06 204.61 265.44 206.81 264.63 207.74 265.72 207.74 266.91 206.94 267.13 207.03 268.87 208.18 270.44 209.72 270.71 210.12 271.96 208.27 273.75 208.13 274.84 209.32 276.47 211.26 276.58 213.29 279.13 210.73 280.06 208.22 280.82 207.34 280.55 206.94 281.14 207.34 281.69 209.94 282.28 210.07 283.91 209.1 284.78 207.12 284.35 206.55 285.32 205.84 286.41 205.71 285.32 206.24 283.96 205.27 283.8 203.81 285 203.24 283.15 201.12 280.49 199.8 280.49 198.52 277.83 197.07 277.94 195.61 279.13 194.42 279.08 193.63 278.05 192.17 277.83 190.67 278.59 187.5 277.12 185.6 275.11 184.72 275.65 182.96 274.03 181.41 271.47 183.71 268.32 183.57 267.45 181.01 268.54 179.96 267.29 180.84 264.3 179.52 263.71 179.34 262.51 179.38 261.43 178.46 261.26 177.8 260.56"/><polygon id="_236140272" data-name=" 236140272" class="cls-2" points="213.34 279.13 210.73 280.06 208.22 280.82 207.34 280.55 206.94 281.14 207.34 281.69 209.94 282.28 210.07 283.91 209.1 284.78 207.12 284.35 206.55 285.32 205.84 286.41 205.71 285.32 206.24 283.96 205.27 283.8 203.81 285 203.24 283.15 201.12 280.49 199.8 280.49 198.52 277.83 197.07 277.94 195.61 279.13 194.42 279.08 193.63 278.05 192.17 277.83 190.67 278.59 191.91 279.68 192.92 281.52 193.27 287.88 194.68 287.77 196.14 287.17 195.74 292.38 194.6 292.28 193.41 292.93 192.35 298.68 191.95 298.79 191.82 300.2 192.83 301.67 190.54 305.85 189.13 307.7 185.34 309.22 185.73 310.63 184.76 311.34 183.97 310.8 183.18 310.2 180.88 313.4 180.97 314.54 183.44 317.15 192.44 318.35 193.49 319.49 193.32 320.63 193.98 321.28 195.39 321.77 195.96 321.66 196.76 320.84 198.65 320.03 199.58 317.21 203.24 312.48 203.9 312.92 204.91 311.88 205.75 312.48 206.02 314 207.78 315.14 211.49 315.3 212.32 314.92 214.31 313.84 216.29 314.76 218.01 310.74 219.91 310.14 223.61 310.8 223.96 310.47 224.89 310.63 226.65 307.59 225.99 306.29 224.41 304.88 224.41 302.59 226.13 300.8 225.29 300.2 224.49 300.96 223.7 299.61 221.54 297.33 219.82 297.49 218.85 296.89 222.24 293.42 222.33 290.81 225.55 288.75 227.27 288.26 228.46 285.87 230.36 284.35 228.81 282.55 227.76 283.69 226.3 282.01 225.11 282.01 224.8 280.98 225.86 279.73 224.45 279.35 223.96 279.89 223.17 280.33 222.33 278.97 222.95 276.58 220.39 276.74 218.59 277.07 218.85 280.87 217.31 280.82 216.91 278.81 213.34 279.13"/><polygon id="_236033368" data-name=" 236033368" class="cls-2" points="163.99 320.36 163.51 316.39 161.66 316.06 160.07 313.94 159.06 313.94 156.9 315.03 155.75 314.81 153.24 311.61 153.15 309.44 146.13 304.01 146.44 301.73 148.16 299.66 148.34 297.76 148.3 293.09 147.63 290.75 148.25 287.28 149.27 287.55 150.54 287.01 152.35 287.01 158.04 284.73 158.88 284.07 159.76 283.86 163.07 281.69 163.95 281.63 165.14 280.65 167.87 279.95 169.64 278.75 171.23 282.99 170.34 282.66 170.12 284.02 168.31 285.21 171.14 293.2 170.56 296.46 171 297.38 173.87 298.2 174.44 298.85 173.74 304.88 173.52 309.11 172.42 309.93 173.12 310.63 174.05 310.04 175.02 310.52 174.89 311.29 176.16 311.61 177.27 312.05 178.19 313.84 178.06 321.06 176.43 320.79 174.53 318.78 172.9 318.51 169.06 319.54 166.24 318.94 165.1 320.36 163.99 320.36"/><polygon id="_236050904" data-name=" 236050904" class="cls-2" points="62.08 245.34 64.38 246.82 70.56 246.82 70.64 248.88 69.36 249.04 68.48 251.54 68.79 252.63 70.07 252.74 69.94 254.04 69.23 255.45 69.23 256.38 70.29 256.97 71.53 256.16 73.51 257.62 75.41 255.24 80.65 254.96 81.49 257.84 80.04 258 79.24 259.47 79.46 260.34 77.52 263.11 77.3 266.37 78.01 267.83 77.26 268.49 75.41 267.24 75.49 264.63 74.44 264.25 72.94 266.37 74.57 268.65 74.13 270.66 73.6 271.74 73.86 274.95 72.85 276.9 74.39 279.78 73.11 281.69 73.11 283.04 71.44 282.82 69.94 284.78 67.6 286.9 67.29 286.95 64.56 288.15 64.07 286.74 65.13 285.87 64.78 284.94 62.93 285.7 61.12 282.44 53.4 285.54 50.67 281.96 48.55 282.93 44.72 279.35 43.35 279.95 41.63 279.68 41.28 278.32 43.04 275.38 41.85 272.56 39.51 272.07 37.7 269.52 40.44 269.3 40.44 268.6 40.88 266.8 41.72 264.74 43.83 263.54 44.23 262.84 44.19 262.19 44.94 262.08 45.86 261.26 45.82 260.61 46.83 260.12 48.02 258.55 48.11 257.57 48.11 256 48.42 253.06 49.39 252.03 49.57 251.05 49.61 250.24 50.14 249.64 51.33 249.53 52.12 249.86 52.61 251 52.12 252.25 52.26 252.52 53.71 251.54 54.81 251.97 56.8 250.84 59.66 248.06 59.53 246.22 60.46 245.73 60.99 246.81 61.69 247.3 62.05 246.49 62.08 245.34"/><polygon id="_236144304" data-name=" 236144304" class="cls-2" points="289.8 3.33 289.45 7.51 284.68 8.55 284.99 11.21 284.07 11.37 283.67 12.62 284.46 13.54 285.52 13.6 286.76 13.27 286.4 11.86 286.98 11.64 288.17 12.13 288.12 14.57 287.81 15.34 288.25 17.78 288.25 21.2 289.58 22.18 291.56 28.21 291.78 30.05 290.42 31.03 289.27 30.6 288.39 31.41 289.18 32.5 285.39 32.23 283.27 32.39 281.11 34.67 283.18 35.27 284.68 34.56 284.51 35.87 286.58 35.92 287.77 37.17 287.68 39.34 286.98 40.21 284.95 41.78 283.93 41.78 283.54 42.87 282.83 43.41 281.38 43.09 278.86 44.61 277.67 45.42 277.23 46.13 276.88 46.67 275.47 46.29 274.81 45.64 273.35 43.69 271.5 43.14 270.04 42.11 269.34 40.21 268.28 39.29 262.9 40.26 262.28 41.62 264.18 43.9 262.33 45.53 261.31 45.31 260.21 46.46 261.49 49.01 261.09 49.55 257.52 48.79 256.6 51.07 249.1 51.83 247.2 53.63 245.97 53.35 244.12 51.67 242.4 51.67 240.19 52.16 237.5 54.71 237.63 62.1 234.72 61.94 232.47 61.83 231.46 61.12 231.99 59.65 228.64 57.92 226.7 57.92 226.13 57.48 225.51 57.86 224.58 58.73 223.48 59.27 222.24 58.41 221.98 57.54 222.07 56.83 223.35 55.74 223.7 54.6 223.39 54.06 222.73 52.43 223.08 51.51 223.92 51.07 225.77 52.21 226.17 51.89 225.82 51.07 224.32 49.88 225.42 48.09 225.42 47.22 223.48 45.8 220.13 45.31 219.29 44.61 219.11 43.69 217.79 42.49 217.92 41.46 217.88 40.26 216.73 40.1 214.84 41.02 212.1 40.26 211.44 38.58 211.66 34.18 209.1 31.14 204.78 30.7 203.81 31.36 201.21 30.32 201.61 29.56 201.96 26.69 202.36 25.82 202.67 23.37 199.98 21.96 199 19.46 197.55 16.91 197.55 15.77 199.49 14.79 199.58 13.92 198.39 12.02 198.48 10.01 200.73 7.51 201.47 6.16 200.95 3.33 202.71 1.65 205.66 1.21 205.88 1.7 207.6 1.49 208.79 2.41 211.57 2.46 211.66 0.34 226.08 0.13 226.04 3.87 230.62 4.15 230.67 6.86 245.04 6.86 245.04 12.84 245.7 12.78 246.14 14.95 246.89 15.01 246.85 16.64 247.03 16.86 248.35 15.99 250.16 16.37 250.38 17.67 253.02 19.14 255.62 19.03 258.49 16.86 259.59 15.28 259.94 12.78 258.49 10.94 260.56 11.37 261.05 7.41 264.58 7.62 265.77 4.8 267.57 4.36 271.54 5.72 271.94 5.72 272.6 3.49 289.8 3.33"/><path id="_216643840" data-name=" 216643840" class="cls-2" d="M44,356.44l2,1.29,1.5.92-.35,3-2.2,1.74,2.69,5.7.18,1.41L46,372.39l-.48,1.68-1.63.22V375l1.19.71v1.85l.35,1.85-.4.87-1.1,2.34.22.71,1.37-.54.13-1.19,1.68-1.47,1.28-1.52,1.28,2,.35,1.9,1.5.27,2.91,1.74,1.06-.54.79.76,1.1.11,2.47-2.44L63.81,381l.31,2.5,2.6-.11,1.81,1.3.22.81-1,1.63.79.6,1.15-1,2.91-.49.18.65,1.32-.11.88.65,2.43-2.23L79.07,383l.57-.43,1.68,1.09,0,1.25.88.43.49-2.72.79-.16.35.92-.44,1.74,2.12.16.31-.38,1.5.38.26-.43.88-1.47.93-1.3V381l1.06-2.12.09-2.39,1-2,.13-1.41.57-.65.13-1.19h.31l.6-1.62,1.12-.4.56-1a6,6,0,0,1-.4-1.29l.4-.88-.32-1,1.77-2.41-3.61-2.09-1.61.16-3-1.45-1.53,1.53-1-1.29,2.89-3.61-2.17-2.33-4.26,1-.72,2.17-.8.08-.64.72-2.09-.08-.24-.48L79.5,352l-6.78-.44-1.81-1-5.2,0-5.4-.22-3.28.88-7.74,3.36-4.6.58L44,356.44Z"/><polygon id="_236111472" data-name=" 236111472" class="cls-2" points="286.58 251.35 285.61 249.42 284.55 248.99 285.08 248.06 287.46 245.68 289.49 243.99 290.24 242.8 290.24 241.17 290.73 240.68 291.52 240.95 291.69 238.56 289.62 238.56 288.96 239.21 288.48 238.45 289.18 236.82 287.95 236.99 286.62 238.02 285.48 237.91 285.13 237.58 286.32 235.3 285.48 234.92 283.36 235.03 283.18 230.79 282.3 230.3 282.26 227.81 286.45 226.28 286.62 225.25 285.39 223.52 285.26 222.48 285.08 221.94 284.15 221.88 281.82 223.79 280.98 223.84 279.39 221.72 276.13 222.86 274.23 217.16 272.16 215.53 272.51 214.12 271.1 213.79 270.44 211.84 274.23 212.06 273.75 211.78 273.88 207.28 276.83 206.9 276.53 202.66 274.67 199.94 275.6 196.63 277.45 195.16 276.83 193.53 273.22 193.64 272.07 192.56 265.19 193.97 263.39 195.6 262.5 195.44 263.65 192.61 263.03 190.22 260.12 189.95 258.31 190.44 256.24 189.08 250.73 187.29 247.34 187.45 246.01 188.65 241.16 188.7 240.68 206.84 239.75 224.76 240.28 225.63 241.03 225.04 241.38 223.79 242.13 223.08 244.34 223.52 244.16 224.71 243.1 225.09 242.26 225.91 240.28 228.73 238.12 230.47 239.57 232.15 243.1 230.69 243.94 228.68 244.65 226.34 245.26 225.8 250.69 226.18 251.97 226.94 254.12 227.43 254.26 228.08 254.92 232.26 256.29 232.15 256.55 233.07 254.74 234.54 253.42 234.65 248.61 234.43 246.94 237.58 244.78 238.23 243.94 238.78 244.16 239.32 246.98 239.43 247.11 240.62 248.48 240.84 249.89 239.81 251.26 239.86 252.1 240.3 254.21 243.83 255.89 243.61 256.55 244.86 257.92 244.81 258.58 245.84 259.37 246.11 259.86 245.68 260.96 246.44 260.83 247.09 261.84 246.82 263.52 247.52 263.47 248.28 264.18 248.39 264.8 247.52 266.87 247.68 267.8 248.94 269.12 249.1 270.75 251.22 271.9 251.87 273.13 252.95 272.2 254.58 269.51 257.46 269.43 258.44 270.4 258.87 271.15 258.65 271.01 257.95 272.25 258.06 272.73 258.93 273.4 259.09 274.1 258.06 274.23 256.81 275.47 257.24 275.86 256.54 277.54 257.73 278.29 256.92 279.61 257.41 281.24 256.75 281.38 255.72 281.99 256.86 282.39 256.86 281.86 254.09 281.99 253.06 283.4 252.57 283.89 251.65 286.58 251.35"/><polygon id="_215371688" data-name=" 215371688" class="cls-2" points="282.96 142.81 276.26 141.94 275.82 144 273.92 143.95 273.17 158.5 271.23 159.05 269.91 156.76 269.21 157.09 270.53 159.97 269.25 161.27 269.16 162.47 270.26 162.14 272.51 164.48 273.48 164.48 274.32 166.05 273.97 167.95 271.15 167.79 271.23 170.45 262.86 170.61 262.11 170.89 261.8 172.73 259.02 171.7 256.51 171.86 254.43 176.91 254.26 179.14 254.92 180.82 255.98 181.42 255.85 182.84 254.57 182.84 254.17 183.92 255.8 185.39 256.24 189.08 250.73 187.29 247.34 187.45 246.01 188.65 241.16 188.7 237.99 188.86 236 189.51 233.75 191.14 231.5 190.06 230.8 188.7 230.4 184.95 229.3 183.27 225.15 182.24 225.38 181.15 223.57 179.31 221.5 176.21 215.94 172.08 213.34 167.57 213.2 164.37 214.66 161.76 214.44 157.09 216.03 153.78 215.01 153.18 211.84 153.02 208.53 151.55 208.31 150.63 207.74 151.66 205.93 150.84 207.74 149.54 207.69 148.07 206.28 147.31 206.37 145.9 210.56 143.57 212.94 145.41 214.04 145.41 216.95 142.48 217.44 140.15 219.6 137.38 219.82 135.58 221.28 134.88 223.66 132.22 225.38 131.78 225.55 130.59 227.49 128.74 230.31 128.52 230.84 127.82 230.62 126.51 232.03 124.88 230.4 124.94 228.9 123.31 229.03 122.44 231.86 122.33 232.03 121.73 230.93 121.46 231.72 120.54 233.75 120.59 236.66 120.16 237.06 119.18 239.88 118.15 241.29 119.02 242.18 118.31 242.4 117.06 249.45 115.76 249.98 110.55 253.68 110.49 253.6 108.05 267.75 109.73 268.63 109.4 268.75 109.06 269.47 108.59 270.26 108.53 271.54 108.05 276.97 105.39 280.1 104.46 281.6 105.49 281.16 107.12 281.51 108.37 280.41 109.84 280.01 110.87 280.14 111.52 282.96 111.41 283.89 113.86 282.3 116.79 281.95 118.64 283.71 119.02 284.37 120.1 282.96 142.81"/><polygon id="_236178728" data-name=" 236178728" class="cls-2" points="24.61 306.34 25.18 306.56 25.67 307.75 25.36 309.06 24.3 310.58 23.11 311.18 22.4 312.48 21.04 313.89 19.98 313.89 19.76 312.75 19.05 312.32 18.26 312.7 17.33 315.19 15.61 317.2 15.61 322.04 13.72 321.28 12.22 319.43 11.42 319.05 10.14 319.49 9.62 320.52 9.84 322.53 11.38 323.78 11.34 324.92 11.2 326.6 11.64 327.69 11.82 329.04 8.69 330.89 6.31 331.16 4.76 331.87 3.35 333.33 4.02 334.42 5.96 336.49 7.76 336.98 6.26 338.82 6.66 339.42 6.93 340.12 6.71 341.59 6.26 342.41 2.96 342.13 0.31 345.61 0.62 348.54 0.14 348.92 0.27 349.74 1.5 350.71 1.77 352.67 3 352.18 3.97 352.29 4.68 352.94 4.99 354.14 5.65 354.35 7.85 353.16 9.75 351.15 12.17 349.41 14.6 349.25 15.66 349.79 15.74 351.42 13.8 352.45 13.05 353.49 13.28 354.52 15.7 356.31 15.79 357.02 15.39 357.5 13.94 357.29 13.76 358.21 14.03 359.89 15.39 361.42 18.88 362.88 23.07 362.72 30.3 365.22 31.09 365.11 31.4 364.13 32.02 362.67 34.35 361.47 36.12 361.31 38.54 359.51 42.16 359.24 43.92 356.42 44.67 355.12 49.26 354.57 57.02 351.15 60.28 350.33 65.7 350.5 66.06 347.73 65.93 346.75 64.69 346.91 63.32 343.49 63.9 342.51 65.31 341.59 65.44 340.07 67.07 338.88 67.12 337.19 66.85 336.43 65.84 336.05 64.69 336.76 63.28 337.3 61.6 337.46 61.12 338.33 60.37 338.55 59.88 340.61 57.86 340.94 57.59 339.36 54.33 336.6 54.81 333.88 53.84 334.2 52.34 330.08 52.17 328.72 49.48 325.57 44.01 328.88 42.47 326.87 41.59 323.45 40 321.71 40.75 321.01 40.7 319.92 39.6 319.05 36.34 318.94 31.18 314.65 30.39 311.72 29.77 311.07 27.91 310.9 28.53 309.82 30.21 309.66 30.61 308.79 28.62 306.72 28.36 305.64 27.43 304.55 24.61 306.34"/></g></g></g></svg>